<?xml version="1.0" standalone="no"?>
<!DOCTYPE svg PUBLIC "-//W3C//DTD SVG 1.1//EN" "http://www.w3.org/Graphics/SVG/1.1/DTD/svg11.dtd" >
<!--
2013-9-30: Created.
-->
<svg>
<metadata>
Created by iconfont
</metadata>
<defs>

<font id="iconfont" horiz-adv-x="1024" >
  <font-face
    font-family="iconfont"
    font-weight="500"
    font-stretch="normal"
    units-per-em="1024"
    ascent="896"
    descent="-128"
  />
    <missing-glyph />
    
    <glyph glyph-name="x" unicode="x" horiz-adv-x="1001"
d="M281 543q-27 -1 -53 -1h-83q-18 0 -36.5 -6t-32.5 -18.5t-23 -32t-9 -45.5v-76h912v41q0 16 -0.5 30t-0.5 18q0 13 -5 29t-17 29.5t-31.5 22.5t-49.5 9h-133v-97h-438v97zM955 310v-52q0 -23 0.5 -52t0.5 -58t-10.5 -47.5t-26 -30t-33 -16t-31.5 -4.5q-14 -1 -29.5 -0.5
t-29.5 0.5h-32l-45 128h-439l-44 -128h-29h-34q-20 0 -45 1q-25 0 -41 9.5t-25.5 23t-13.5 29.5t-4 30v167h911zM163 247q-12 0 -21 -8.5t-9 -21.5t9 -21.5t21 -8.5q13 0 22 8.5t9 21.5t-9 21.5t-22 8.5zM316 123q-8 -26 -14 -48q-5 -19 -10.5 -37t-7.5 -25t-3 -15t1 -14.5
t9.5 -10.5t21.5 -4h37h67h81h80h64h36q23 0 34 12t2 38q-5 13 -9.5 30.5t-9.5 34.5q-5 19 -11 39h-368zM336 498v228q0 11 2.5 23t10 21.5t20.5 15.5t34 6h188q31 0 51.5 -14.5t20.5 -52.5v-227h-327z" />
    

    
    <glyph glyph-name="shouji1" unicode="&#58913;" d="M820.409449 14.771654q0-25.19685-10.07874-46.866142t-27.716535-38.299213-41.322835-26.204724-50.897638-9.574803l-357.795276 0q-27.212598 0-50.897638 9.574803t-41.322835 26.204724-27.716535 38.299213-10.07874 46.866142l0 675.27559q0 25.19685 10.07874 47.370079t27.716535 38.80315 41.322835 26.204724 50.897638 9.574803l357.795276 0q27.212598 0 50.897638-9.574803t41.322835-26.204724 27.716535-38.80315 10.07874-47.370079l0-675.27559zM738.771654 641.66929l-455.559055 0 0-577.51181 455.559055 0 0 577.51181zM510.992126 35.937008q-21.165354 0-36.787402-15.11811t-15.622047-37.291339q0-21.165354 15.622047-36.787402t36.787402-15.622047q22.173228 0 37.291339 15.622047t15.11811 36.787402q0 22.173228-15.11811 37.291339t-37.291339 15.11811zM591.622047 727.338582q0 8.062992-5.03937 12.598425t-11.086614 4.535433l-128 0q-5.03937 0-10.582677-4.535433t-5.543307-12.598425 5.03937-12.598425 11.086614-4.535433l128 0q6.047244 0 11.086614 4.535433t5.03937 12.598425z"  horiz-adv-x="1024" />

    
    <glyph glyph-name="yu" unicode="&#59031;" d="M671.643953 379.678714c80.936357 52.068889 152.179958 106.916055 262.083044 68.37425-36.050054-46.502104-67.579141-87.171362-100.429317-129.544425 36.257785-28.39163 72.764234-56.977689 123.957173-97.064686-116.378567-48.993854-199.139479-24.40483-283.971563 5.424546-98.78998-69.15708-184.077435-167.976736-322.134745-149.271722-135.568628 18.368346-202.983018 125.744889-287.312658 209.003128C212.846666 573.969768 405.225161 603.675324 671.643953 379.678714zM429.832605 469.347966c0-121.394814 0-220.707704 0-351.520005C495.759107 250.830137 519.603165 350.947346 429.832605 469.347966zM328.474127 417.263727c-9.42772-82.248236-18.324344-159.851685-27.555589-240.381789C388.333446 284.391511 391.459646 309.933233 328.474127 417.263727z"  horiz-adv-x="1024" />

    
    <glyph glyph-name="yu1" unicode="&#58897;" d="M982.649 759.173c-17.42 17.405-47.103 28.836-70.657 32.969-183.135 32.551-345.65-69.556-431.185-143.223-47.060 3.169-227.185-19.339-227.185-19.339-95.017-12.147-53.251-53.297-53.251-53.297l129.649-129.537c-67.281-220.964-26.553-261.659-37.851-315.102-11.295-53.451-100.85-31.6-200.476-37.899-99.621-6.314-105.162-41.966-70.577-70.639 26.173-21.669 101.766-50.787 137.179-63.781 8.622-4.477 20.817-14.172 29.154-35.599 14.238-38.096 40.299-103.090 60.123-126.88 28.668-34.523 64.355-28.992 70.577 70.639 6.133 99.709-15.711 189.162 37.73 200.502 53.436 11.344 94.162-29.349 315.062 38.123l129.571-129.458c0 0 41.268-41.813 53.254 53.3 0 0 22.395 180.101 19.222 227.113 73.553 85.645 175.599 248.244 142.854 431.314-4.243 23.63-15.609 53.225-33.111 70.711v0 0l-0.084 0.081zM881.527 567.217c-24.41-24.432-64.546-23.95-89.51 0.993-25.053 25.033-25.481 65.079-1.071 89.51 24.407 24.429 64.458 24.035 89.51-0.994 24.964-24.945 25.481-65.079 1.071-89.509v0z"  horiz-adv-x="1024" />

    
    <glyph glyph-name="yu2" unicode="&#58884;" d="M655.036717 497.009979c-12.669554-12.679787-12.446473-33.463136 0.556679-46.455031 12.955056-12.945847 33.786501-13.196557 46.456055-0.515746 12.666484 12.67774 12.400425 33.506115-0.556679 46.455031C688.490643 509.483058 667.702178 509.68772 655.036717 497.009979zM510.267543 752.544887c-247.101841 0-447.418123-200.316282-447.418123-447.418123s200.316282-447.418123 447.418123-447.418123S957.685665 58.0239 957.685665 305.126764 757.369384 752.544887 510.267543 752.544887zM687.640276 171.200542c-6.222725-49.362244-27.638477-27.663036-27.638477-27.663036l-67.24759 67.190285c-114.645087-35.017538-135.782499-13.900591-163.514097-19.785625-27.734668-5.888104-16.397459-52.311413-19.579941-104.060007-3.229554-51.706639-21.751397-54.578036-36.629245-36.660968-10.29139 12.346189-23.813359 46.077432-31.203676 65.850777-4.327562 11.118222-10.656711 16.151865-15.131629 18.473747-18.377556 6.743588-57.611116 21.85782-71.194482 33.102932-17.947767 14.880919-15.074324 33.386388 36.629245 36.660968 51.703569 3.269463 98.182137-8.069793 104.043634 19.669992 5.864568 27.734668-15.272845 48.853661 19.643386 163.534564l-67.287499 67.229171c0 0-21.673625 21.35333 27.6395 27.658943 0 0 93.482091 11.680017 117.906363 10.036587 44.391023 38.232766 128.736013 91.224678 223.780693 74.330916 12.224416-2.14485 27.630291-8.075933 36.672224-17.10968l0.044002-0.042979c9.081843-9.076726 14.982226-24.436552 17.184381-36.69883 16.994046-95.012957-35.96819-179.397856-74.140581-223.850278C699.262988 264.671377 687.640276 171.200542 687.640276 171.200542z"  horiz-adv-x="1024" />

    
    <glyph glyph-name="shouji" unicode="&#58912;" d="M512.716485 812c-282.653233 0-511.774819-229.131822-511.774819-511.764584 0-282.642997 229.121587-511.785055 511.774819-511.785055 282.642997 0 511.774819 229.131822 511.774819 511.785055C1024.491304 582.868178 795.359482 812 512.716485 812zM734.212626 54.655152c0-38.956299-34.95422-70.860341-77.02211-70.860341L368.221982-16.20519c-42.047419 0-77.001639 31.893807-77.001639 70.860341L291.220343 545.805446c0 38.761825 34.95422 70.83987 77.001639 70.83987l288.968534 0c42.057655 0 77.02211-32.078046 77.02211-70.83987L734.212626 54.655152zM512.921195 61.420815c-14.503698 0-27.472072-11.095278-27.472072-25.025789 0-13.930511 12.958138-24.984847 27.472072-24.984847 15.291832 0 27.072888 11.044101 27.072888 24.984847C539.983847 50.325537 528.202791 61.420815 512.921195 61.420815zM348.06829 540.2271l329.306625 0 0-453.596258-329.306625 0 0 453.596258ZM471.262724 565.375715l82.917756 0c3.828076 0 6.898725 2.865939 6.898725 6.376714 0 3.531246-3.070649 6.376714-6.898725 6.376714l-82.917756 0c-3.807605 0-6.90896-2.855703-6.90896-6.376714C464.353764 568.241654 467.45512 565.375715 471.262724 565.375715z"  horiz-adv-x="1025" />

    
    <glyph glyph-name="tx" unicode="&#58891;" d="M642.028449 599.487819c0-14.422478-11.914354-26.140357-26.412556-26.140357L405.563876 573.347462c-14.614859 0-26.257014 11.717879-26.257014 26.140357l0 0c0 14.579043 11.641131 26.292829 26.257014 26.292829l210.052017 0C630.114095 625.780649 642.028449 614.066863 642.028449 599.487819L642.028449 599.487819zM660.801001 742.211405c0-47.260373-28.844955-85.74385-64.310701-85.74385L424.925852 656.467555c-35.622312 0-64.467267 38.483476-64.467267 85.74385l0 0c0 47.421033 28.844955 85.900416 64.467267 85.900416 0 0 45.337581-47.063899 64.306608-42.910299 14.852266 3.134387 27.861558 44.75225 42.910299 42.910299 15.08865-1.802042 27.942399-45.337581 42.833551-42.910299 11.874445 1.998517 21.512966 42.910299 21.512966 42.910299C631.956046 828.11182 660.801001 789.632437 660.801001 742.211405L660.801001 742.211405zM877.631398 5.271306c0-36.839023-29.980825-66.62235-66.739007-66.62235L210.287377-61.351044c-36.914748 0-66.814732 29.78435-66.814732 66.62235 0 37.187971 29.899984 66.971297 66.814732 66.971297L210.287377 322.464505c0 119.757524 97.108688 216.986963 216.910215 216.986963l166.865425 0c119.640867 0 216.830397-97.229438 216.830397-216.986963l0-250.221902C847.650573 72.242604 877.631398 42.459277 877.631398 5.271306zM631.410624 188.750107c-0.156566 45.967938-23.712051 73.753771-83.981716 94.680383-43.459814 15.558347-61.09752 26.685779-61.09752 42.910299-0.156566 13.992689 10.425444 28.844955 43.263339 28.844955 36.409235 0 60.117193-11.288091 72.65781-17.440208l14.932084 57.059554c-17.636682 8.073886-40.249703 15.634072-73.677023 16.496719l-0.075725 9.759271-0.196475 0 0 3.527336c0 13.55983-11.208273 24.687262-24.843828 24.687262-13.639648 0-24.731264-11.127432-24.731264-24.687262l0-9.719362c0-1.13587 0.079818-2.155083 0.237407-3.290953l0.115634-3.920286c-54.03773-10.425444-85.154425-45.185108-85.154425-90.25049 0.273223-48.985668 37.111223-74.106812 91.229794-92.092441 37.858236-12.503778 54.118572-24.651446 54.275137-43.852764 0-19.831674-19.631106-31.272237-48.985668-31.272237-32.837896-0.353041-62.621223 10.42135-83.901899 21.709441l-14.9679-58.901505c19.278065-10.698666 52.039213-20.140713 85.940324-21.629623l0.075725-7.720845 0 0 0-4.782933c0-13.55983 11.131525-24.687262 24.924669-24.687262 13.55983 0 24.687262 11.127432 24.687262 24.687262l0 4.782933 0.509606 0-0.192382 12.07092C600.491427 105.43354 631.603005 143.841292 631.410624 188.750107z"  horiz-adv-x="1024" />

    
    <glyph glyph-name="jinbi" unicode="&#58880;" d="M512 754.688c-204.672 0-370.688-166.016-370.688-370.688S307.328 13.312 512 13.312c204.672 0 370.688 166.016 370.688 370.688S716.672 754.688 512 754.688L512 754.688zM691.456 415.36 691.456 372.48 562.816 372.48l0-85.76 128.64 0 0-42.88L562.816 243.84l0-85.76-85.76 0 0 85.76L348.416 243.84 348.416 286.72l128.768 0 0 85.76L348.416 372.48l0 42.88 128.768 0-171.52 171.52 85.76 0L520.064 458.24l128.64 128.64 85.76 0-171.52-171.52L691.456 415.36 691.456 415.36zM691.456 415.36"  horiz-adv-x="1024" />

    
    <glyph glyph-name="fcstubiao23" unicode="&#58990;" d="M979.00544 448.57344 536.53504 835.97312c-13.49632 11.79648-35.55328 11.73504-49.0496-0.06144l-171.9296-150.77376c-13.49632-11.81696-24.51456-7.20896-24.51456 10.24L291.04128 727.3472c0 17.46944-14.92992 31.70304-33.21856 31.70304L188.5184 759.05024c-18.26816 0-33.30048-14.25408-33.30048-31.70304l0-151.08096c0-17.46944-11.01824-41.39008-24.51456-53.22752l-85.7088-75.24352C31.51872 436.0192 20.48 412.03712 20.48 394.58816l0-13.80352c0-17.408 14.97088-31.744 33.30048-31.744l68.01408 0c18.26816 0 33.30048-14.336 33.30048-31.70304l0-362.3936c0-17.46944 14.88896-31.70304 33.1776-31.70304l199.65952 0c18.24768 0 33.23904 14.25408 33.23904 31.70304L421.1712 122.0608c0 17.46944 14.92992 31.76448 33.28 31.76448l116.36736 0c18.3296 0 33.30048-14.31552 33.30048-31.76448l0-167.13728c0-17.46944 14.99136-31.70304 33.28-31.70304l221.81888 0c18.26816 0 33.23904 14.25408 33.23904 31.70304L892.45696 317.3376c0 17.36704 14.99136 31.70304 33.28 31.70304l44.52352 0c18.35008 0 33.30048 14.336 33.30048 31.744l0 14.52032C1003.52 412.85632 992.48128 436.75648 979.00544 448.57344zM512 399.79008c-54.08768 0-97.85344 43.76576-97.85344 97.8944 0 54.08768 43.76576 97.85344 97.85344 97.85344s97.85344-43.76576 97.85344-97.85344C609.85344 443.57632 566.08768 399.79008 512 399.79008z"  horiz-adv-x="1024" />

    
    <glyph glyph-name="c-cobank" unicode="&#59001;" d="M886.784 582.656h137.216l-512 312.676-512-312.676h137.216v-608.256l-137.216-0v-102.4h1024v102.4h-137.216v608.256zM382.976 101.464c0-29.344-24.844-53.142-55.296-53.142s-55.296 23.798-55.296 53.142v372.021c0 29.352 24.844 53.144 55.296 53.144s55.296-23.792 55.296-53.144v-372.021zM567.296 101.464c0-29.344-24.848-53.142-55.296-53.142-30.452 0-55.296 23.798-55.296 53.142v372.021c0 29.352 24.844 53.144 55.296 53.144 30.448 0 55.296-23.792 55.296-53.144v-372.021zM749.568 101.464c0-29.344-23.82-53.142-54.272-53.142s-54.272 23.798-54.272 53.142l0 372.021c0 29.352 23.82 53.144 54.272 53.144s54.272-23.792 54.272-53.144l-0-372.021z"  horiz-adv-x="1024" />

    
    <glyph glyph-name="naozhong-copy" unicode="&#58881;" d="M865.226 439.361c-41.34 114.65-142.288 202.645-267.772 230.655 32.157 46.125 85.422 76.444 145.888 76.444 98.315 0 177.985-79.702 177.985-177.969 0.032-51.005-21.714-96.678-56.101-129.131v0zM522.974 739.806v-111.906c170.782-6.969 307.179-147.214 307.179-319.68 0-72.033-24.052-138.22-64.144-191.748l74.23-128.57-61.682-35.587-63.491 110.035c-55.588-46.452-127.122-74.464-205.232-74.464-77.675 0-148.865 27.636-204.329 73.654l-65.173-112.858-61.635 35.587 75.711 131.188c-40.577 53.67-64.939 120.325-64.939 192.779 0 171.328 134.603 310.794 303.701 319.507v112.095c-17.271 6.173-29.788 22.29-29.788 41.683 0 24.707 20.031 44.707 44.707 44.707 24.707 0 44.707-20.015 44.707-44.707 0-19.423-12.547-35.523-29.82-41.713v0zM260.644 308.219c0-137.611 111.549-249.159 249.159-249.159s249.159 111.517 249.159 249.159c0 137.595-111.549 249.145-249.159 249.145s-249.159-111.549-249.159-249.145v0zM584.501 254.362h-89.46c-16.446 0-29.788 13.359-29.788 29.804v119.233c0 16.477 13.343 29.82 29.788 29.82 16.508 0 29.82-13.343 29.82-29.82v-89.427h59.638c16.462 0 29.788-13.327 29.788-29.835 0-16.415-13.327-29.772-29.788-29.772v0zM158.837 439.361c-34.387 32.454-56.148 78.142-56.148 129.147 0 98.283 79.686 177.969 177.985 177.969 60.482 0 113.73-30.334 145.888-76.46-125.468-28.012-226.385-116.005-267.725-230.655v0z"  horiz-adv-x="1024" />

    
    <glyph glyph-name="mima-copy" unicode="&#58916;" d="M813.446 469.711v125.751c0 0-0.038 293.369-293.369 293.369s-293.369-293.369-293.369-293.369v-125.751h-125.751v-586.775h838.24v586.775h-125.751zM561.983 146.051v-137.364h-83.809v137.364c-24.933 14.525-41.904 41.283-41.904 72.196 0 46.332 37.554 83.847 83.809 83.847 46.254 0 83.809-37.516 83.809-83.847 0.038-30.913-16.932-57.671-41.904-72.196M729.637 469.749h-419.12v125.169c0.466 35.108 12.816 210.103 209.559 210.103s209.094-174.996 209.559-209.559v-125.713z"  horiz-adv-x="1024" />

    
    <glyph glyph-name="wodejingcai01" unicode="&#58940;" d="M511.563776 895.11936C229.006336 895.11936 0 666.05056 0 383.558656 0 101.067776 229.006336-128 511.563776-128c282.42432 0 511.55968 229.067776 511.55968 511.558656C1023.12448 666.05056 793.988096 895.11936 511.563776 895.11936L511.563776 895.11936zM643.05152 185.463808c-26.908672-19.849216-59.416576-34.837504-98.048-37.90336l0-63.080448-67.549184 0 0 64.078848c-41.290752 4.865024-70.99904 17.118208-96.04608 37.236736-33.173504 26.441728-43.296768 54.682624-49.821696 90.120192l101.644288 24.849408c0-33.37728 34.504704-71.60832 85.931008-71.60832 30.635008 0 67.272704 14.990336 66.873344 54.890496-0.26624 32.632832-34.770944 56.013824-72.071168 64.406528-38.636544 8.66304-116.701184 35.232768-138.281984 58.948608-21.716992 23.578624-27.711488 57.085952-27.711488 96.050176 0 33.508352 14.921728 67.342336 39.168 87.798784 23.573504 19.91168 51.15392 32.70144 90.3168 37.492736l0 53.824512 67.549184 0 0-53.620736c37.033984-3.995648 67.53792-15.655936 90.98752-35.6352 29.172736-25.04704 43.959296-57.153536 43.959296-76.466176l-101.51424-23.849984c0 25.046016-37.56544 55.95648-63.141888 55.95648-33.173504 0-59.416576-9.327616-59.416576-50.822144 0-29.843456 22.648832-39.568384 61.950976-52.158464 66.076672-21.051392 116.164608-48.422912 139.208704-72.070144 22.913024-23.7824 34.369536-53.689344 34.369536-89.853952C691.407872 239.345664 674.753536 209.173504 643.05152 185.463808L643.05152 185.463808zM643.05152 185.463808"  horiz-adv-x="1024" />

    
    <glyph glyph-name="shaijiang" unicode="&#58904;" d="M612.392478 150.098809c-2.514263 9.05012-10.715039 15.309684-20.075221 15.309684l-44.217061 0 0 75.500555c-11.208273-1.89107-22.703071-2.924609-34.396391-2.924609-11.719926 0-23.210631 1.036609-34.418904 2.924609l0-75.504648-44.183292 0c-9.361205 0-17.572214-6.256494-20.072151-15.306614l-15.699564-56.628742c-1.731434-6.293333-0.449231-13.047154 3.483334-18.244526 3.958148-5.210675 10.082636-8.27957 16.601096-8.27957l188.582029 0 0.178055 0c11.504008 0 20.830421 9.373485 20.830421 20.923542 0 2.876514-0.569982 5.624091-1.609661 8.110725L612.392478 150.098809 612.392478 150.098809zM612.392478 150.098809M725.43609 598.769458c-5.768377 1.534959-11.619642 2.27174-17.438161 2.27174-2.690272 0-5.368264-0.177032-8.04421-0.474814l0 55.80805c0 10.870582-8.770757 19.696598-19.599384 19.696598L347.078857 676.071032c-10.842952 0-19.620873-8.826016-19.620873-19.696598l0-55.80805c-2.677992 0.298805-5.355985 0.474814-8.035 0.474814-5.828752 0-11.67183-0.73678-17.441231-2.27174-45.735647-12.237719-70.096475-70.092381-54.431703-129.231293 13.72049-51.691289 53.485145-87.266529 93.818759-87.266529 2.036379 0 4.082992 0.202615 6.134721 0.407276 1.493004-3.246951 3.082198-6.42534 4.740978-9.55154 0.305969-0.582261 0.615007-1.164522 0.924045-1.711991 2.437515-4.519943 5.03569-8.92016 7.782244-13.166881 0.309038-0.474814 0.615007-0.963954 0.937348-1.438769 2.880607-4.364401 5.873778-8.633634 9.04091-12.760628 0.081864-0.106424 0.174985-0.214894 0.26913-0.322341 6.649444-8.611122 13.982456-16.581654 21.861914-23.88499 0.152473-0.130983 0.26913-0.283456 0.403183-0.390903 3.898797-3.593851 7.937786-6.980995 12.07092-10.218736 0.200568-0.153496 0.390903-0.282433 0.583285-0.438998 17.119913-13.202697 36.396955-23.361057 57.118905-29.701462 0.072655-0.034792 0.12996-0.048095 0.201591-0.070608 5.204535-1.568728 10.465352-2.925632 15.821337-4.03285l0.022513 0 0 0c5.54632-1.124614 11.172457-1.997494 16.856923-2.575662 0.130983-0.026606 0.274246-0.026606 0.393973-0.039909 5.649674-0.569982 11.397584-0.892323 17.166985-0.892323 5.783727 0 11.482519 0.322341 17.122983 0.892323 0.14224 0.013303 0.282433 0.013303 0.438998 0.039909 5.672186 0.567935 11.266601 1.451048 16.789385 2.575662l0.035816 0 0.060375 0c5.341658 1.107217 10.606569 2.455935 15.782451 4.02364 0.069585 0.022513 0.13917 0.046049 0.23536 0.072655 20.72502 6.352685 39.977503 16.495696 57.111742 29.699416 0.185218 0.144286 0.375553 0.296759 0.565888 0.440022 4.167926 3.225461 8.202822 6.640234 12.08627 10.215666 0.132006 0.119727 0.261966 0.240477 0.391926 0.38374 7.899924 7.291057 15.236006 15.296381 21.908986 23.920806 0.094144 0.095167 0.163729 0.189312 0.23843 0.296759 3.171226 4.126994 6.183839 8.399297 9.061376 12.773931 0.308015 0.464581 0.630357 0.939395 0.936325 1.415232 2.736321 4.27128 5.355985 8.671497 7.79657 13.19144 0.295735 0.547469 0.594541 1.107217 0.899486 1.676176 1.659803 3.140527 3.245927 6.326079 4.752234 9.587356 2.047636-0.200568 4.109598-0.403183 6.135744-0.403183 40.333614 0 80.106456 35.57524 93.802386 87.266529C795.544845 528.676054 771.161504 586.530716 725.43609 598.769458L725.43609 598.769458zM279.779078 478.149287c-10.736529 40.538275 3.364631 80.94045 30.78105 88.266299 2.894933 0.773619 5.868661 1.155313 8.875135 1.155313 2.665713 0 5.344728-0.358157 8.022721-0.917906L327.457983 473.750093c0-5.662977 0.274246-11.276834 0.713244-16.829294 0.046049-0.75213 0.079818-1.500167 0.140193-2.248204 0.448208-5.269004 1.125637-10.480702 1.943258-15.640212 0.155543-0.928139 0.309038-1.820462 0.452301-2.724041 0.89744-5.127787 1.943258-10.17064 3.185552-15.131629 0.179079-0.769526 0.38988-1.531889 0.593518-2.306532 0.226151-0.86981 0.438998-1.702782 0.675382-2.558265C311.543525 420.181037 288.448528 445.430094 279.779078 478.149287L279.779078 478.149287zM615.518678 516.273583l-55.332213-41.690518 20.123316-65.966411c0.779759-2.556219-0.146333-5.335519-2.300392-6.92062-1.104147-0.797156-2.405793-1.214664-3.683902-1.214664-1.24434 0-2.499937 0.370437-3.544733 1.118474l-57.08309 39.431058-57.078996-39.431058c-2.168386-1.532913-5.106298-1.473561-7.250124 0.096191-2.145873 1.584078-3.055592 4.366448-2.261507 6.925736l20.082384 65.961294-55.323003 41.690518c-2.131547 1.604544-3.03308 4.423753-2.204202 6.968715 0.817622 2.533706 3.154853 4.28356 5.830799 4.340865l69.480444 1.406023 22.834055 65.176418c0.864694 2.51324 3.233648 4.189416 5.887081 4.189416 2.664689 0 5.024433-1.676176 5.900384-4.189416l22.824845-65.176418 69.456908-1.406023c2.685155-0.058328 5.03569-1.807159 5.854335-4.340865C618.531292 520.697335 617.664551 517.878127 615.518678 516.273583L615.518678 516.273583zM747.655138 478.149287c-8.686846-32.718169-31.755238-57.969273-55.394634-61.835324 0.23843 0.842181 0.464581 1.689479 0.676405 2.555196 0.213871 0.774643 0.416486 1.52268 0.606821 2.306532 1.24127 4.960988 2.286066 10.003841 3.164063 15.131629 0.163729 0.903579 0.308015 1.795902 0.450255 2.724041 0.829901 5.160533 1.494027 10.371208 1.953492 15.640212 0.069585 0.748037 0.105401 1.487887 0.153496 2.212388 0.428765 5.579065 0.688685 11.202133 0.688685 16.865109l0 92.9029c2.677992 0.559748 5.380544 0.917906 8.04421 0.917906 2.998287 0 5.984295-0.381693 8.852622-1.155313C744.28846 559.089737 758.38962 518.687562 747.655138 478.149287L747.655138 478.149287zM747.655138 478.149287"  horiz-adv-x="1024" />

    
    <glyph glyph-name="iconfontzuo-copy" unicode="&#58882;" d="M544-64c265.089 0 480 214.912 480 480s-214.912 480-480 480c-265.089 0-480-214.912-480-480 0-265.089 214.912-480 480-480zM544 832c229.376 0 416-186.625 416-416s-186.625-416-416-416-416 186.625-416 416 186.625 416 416 416zM481.472 639.616c8.193 0 16.384-3.136 22.656-9.344l191.552-191.616c0.064 0 0.064-0.064 0.064-0.064s0 0 0.064-0.064c0 0 0 0 0 0 0 0 0 0 0.064-0.064v0c0 0 0 0 0.064-0.064v0c0 0 0.064-0.064 0.064-0.064s0 0 0 0-0.448 0-0.448-0.064v0c5.824-6.016 8.448-13.76 8.448-21.504v0c0 0 0-0.064 0-0.064s0.512 0 0.512 0c0 0 0.256 0 0.256-0.064 0 0-0.385 0-0.385 0 0 0-0.385 0-0.384-0.064 0 0 0 0 0-0.064h0.512c0 0 0.256 0 0.256-0.064 0 0 0.129 0 0.129 0 0 0 0.064 0 0.064-0.064 0 0 0 0 0 0 0 0 0 0 0-0.064v0 0c0 0 0-0.064 0-0.064s0 0 0 0 0-0.064 0-0.064c0 0 0 0 0 0 0 0-0.512-0.064-0.512-0.064h-0.512c0-0.064 0-0.064 0-0.064s0.512-0.064 0.512-0.064c0 0 0.256 0 0.256 0 0 0-0.384-0.064-0.384-0.064 0 0-0.385 0-0.385 0 0 0 0-0.064 0-0.064v0c0-7.808-2.624-15.488-8.448-21.504v0c0 0 0.192-0.064 0.192-0.064s0.064 0 0.064 0 0 0 0-0.064v0c0 0 0 0 0-0.064v0c0 0-0.064-0.064-0.064-0.064s0 0 0 0 0 0-0.064-0.064c0 0 0 0-0.064-0.064l-192.768-192.832c-12.48-12.48-32.768-12.48-45.248 0s-12.48 32.768 0 45.248l170.239 169.664-168.896 168.96c-12.48 12.48-12.48 32.768 0 45.248 6.272 6.208 14.464 9.344 22.592 9.344z"  horiz-adv-x="1024" />

    
    <glyph glyph-name="qq" unicode="&#58883;" d="M511.999998 896C229.232866 896 0.021487 666.779412 0.021487 384s229.211379-512 511.978511-512 511.978511 229.220588 511.978511 512S794.76713 896 511.999998 896zM793.886063 224.426655c-13.223163-12.342096-35.924187 1.102101-57.744145 31.296797-9.476839-25.566282-21.818935-49.149397-36.144198-70.309322 30.854728-11.019984 50.691519-28.211529 50.691519-47.608298 0-33.500998-59.287291-60.611449-132.457778-60.611449-43.417859 0-81.767282 9.476839-106.010429 24.24417-24.023136-14.767332-62.59257-24.24417-106.010429-24.24417-73.17151 0-132.457778 27.109428-132.457778 60.611449 0 19.174712 19.835767 36.586267 50.691519 47.608298-14.546298 21.158902-26.66736 44.742017-36.144198 70.309322-21.818935-29.974685-44.518936-43.639916-57.744145-31.296797-18.072611 16.97051-11.239995 76.921927 15.647375 133.785006 6.170536 13.004175 12.783141 24.685215 19.614733 34.82311 3.746324 165.30386 112.62201 297.986765 246.180865 297.986765l0.441045 0c133.558855 0 242.434541-132.462894 246.180865-297.986765 6.832615-10.138918 13.444197-21.819958 19.614733-34.82311C804.906048 301.347558 811.958674 241.397165 793.886063 224.426655z"  horiz-adv-x="1024" />

    
    <glyph glyph-name="jianadabiaozhi" unicode="&#58888;" d="M511.983 871.872l-78.9-147.159c-8.954-15.994-24.995-14.509-41.035-5.577l-57.12 29.58 42.572-226.031c8.954-41.295-19.77-41.295-33.948-23.439l-99.686 111.598-16.183-56.675c-1.868-7.443-10.073-15.257-22.384-13.396l-126.055 26.503 33.109-120.372c7.087-26.783 12.617-37.873-7.155-44.939l-44.929-21.116 216.995-176.259c8.59-6.666 12.929-18.658 9.872-29.518l-18.992-62.326c74.716 8.613 141.66 21.571 216.413 29.55 6.601 0.704 17.646-10.187 17.601-17.835l-9.9-228.335h36.331l-5.718 227.846c-0.045 7.648 9.973 19.027 16.573 18.322 74.752-7.98 141.699-20.938 216.416-29.55l-18.994 62.326c-3.054 10.86 1.282 22.853 9.874 29.516l216.993 176.261-44.929 21.116c-19.773 7.066-14.243 18.156-7.155 44.939l33.107 120.372-126.055-26.503c-12.309-1.861-20.513 5.954-22.384 13.396l-16.181 56.675-99.689-111.599c-14.176-17.855-42.901-17.855-33.948 23.44l42.572 226.031-57.118-29.58c-16.041-8.933-32.082-10.416-41.035 5.577z"  horiz-adv-x="1024" />

    
    <glyph glyph-name="chakan" unicode="&#58901;" d="M510.905062 714.591347c-374.220007 0-510.906086-330.572928-510.906086-330.572928s138.563846-330.609767 510.906086-330.609767c362.950336 0 510.934738 330.609767 510.934738 330.609767S879.521444 714.591347 510.905062 714.591347zM510.965437 173.545824c-116.199489 0-210.386638 94.211708-210.386638 210.411197 0 116.14116 94.187149 210.356962 210.386638 210.356962 116.197442 0 210.382545-94.216825 210.382545-210.356962C721.346959 267.757532 627.161856 173.545824 510.965437 173.545824zM510.965437 534.23363c-83.004459 0-150.276608-67.301825-150.276608-150.277632 0-83.031065 67.273173-150.301168 150.276608-150.301168 83.001389 0 150.273539 67.270103 150.273539 150.301168C661.237953 466.932828 593.966826 534.23363 510.965437 534.23363z"  horiz-adv-x="1038" />

    
    <glyph glyph-name="yaoqing" unicode="&#58965;" d="M798.341632 211.602131C797.242771 211.802572 796.442437 211.902079 796.442437 211.902079 787.846304 213.801275 780.749911 219.29842 776.452555 226.595254 776.351627 226.895202 772.753674 233.892088 767.556476 244.286486 751.264054 276.970837 717.779366 343.839281 717.779366 343.839281 713.68103 352.9358 704.385493 359.332789 693.691147 359.332789 682.895871 359.332789 673.600334 352.9358 669.501995 343.839281 669.501995 343.839281 664.805184 334.644675 658.307263 321.550748 641.609699 288.2665 612.030019 229.394294 611.929088 229.193853 607.931683 220.498213 600.034953 214.001713 590.339962 212.001589 589.939083 211.902079 455.103335 192.71111 455.103335 192.71111 443.509145 189.912074 434.913014 179.716693 434.913014 167.4231 434.913014 160.426214 437.712051 154.029224 442.309355 149.431923 442.309355 149.431923 537.864742 57.573994 538.16469 57.275466 543.461398 51.7769 546.760823 44.481487 546.760823 36.284812 546.760823 34.485127 546.460875 32.686862 546.260437 30.986684 546.160927 30.686736 535.864619-28.485419 529.262925-66.067022 526.264868-83.458306 523.970481-96.252285 523.970481-96.252285 523.970481-96.252285 523.465832-99.851656 523.465832-101.550414 523.465832-115.94364 535.266143-127.537827 549.852701-127.537827 553.351144-127.537827 556.755766-126.838424 559.849064-125.539125 559.849064-125.539125 648.906533-79.260457 674.800126-66.067022 678.992286-63.96881 681.596571-62.568579 681.890833-62.469069 685.389276-61.068842 689.29286-60.269929 693.385513-60.269929 697.384342-60.269929 701.081802-61.068842 704.580245-62.369562 704.880193-62.469069 707.679229-63.867879 711.877078-66.067022 737.969689-79.460898 826.029224-125.439615 826.728631-125.638632 829.821929-126.937931 833.225127-127.638758 836.82308-127.638758 851.416745-127.638758 863.31088-116.043147 863.31088-101.649921 863.31088-101.150955 860.706595-85.957395 857.313349-66.067022 850.516901-26.586223 840.321523 31.886528 840.222013 32.786369 840.122503 33.88523 839.922065 34.985513 839.922065 36.084374 839.922065 44.080611 843.12056 51.377442 848.31776 56.77508 848.518198 56.975521 859.113034 67.169478 873.007296 80.563354 901.39287 107.85149 943.972657 148.731096 943.972657 148.731096 948.970837 153.729276 951.968894 160.126266 951.968894 167.323593 951.968894 179.817624 943.074234 190.212022 931.178678 192.71111 931.478626 192.510672 814.433617 209.203971 798.341632 211.602131L798.341632 211.602131ZM411.12332 119.046222C398.229831 132.039219 391.133438 149.231482 391.133438 167.4231 391.133438 199.507558 413.222954 227.19515 445.007464 234.691001 446.306763 234.990949 447.706994 235.290894 449.006293 235.491335 483.49033 240.388585 529.268612 246.986015 557.655607 250.983424L605.033133 344.939563C610.430772 347.83811 615.427531 351.436062 620.624732 354.634557 662.405602 380.323444 697.388607 415.906345 721.877705 458.885587 746.265871 501.665809 760.659098 550.942531 760.659098 603.717696 760.559591 764.741298 630.820112 895.680569 471.395757 895.680569 311.969981 895.680569 182.231923 764.741298 182.231923 603.717696 182.231923 550.942531 196.62515 501.665809 221.013316 458.885587 248.50047 410.508707 288.982042 370.627031 338.058325 344.840056 335.259286 344.24016 332.46167 344.139229 329.76214 343.439825 311.270575 338.743011 293.879294 331.345249 277.187414 322.250151 260.694554 313.155052 245.701431 302.059831 231.409135 290.064765 209.518636 274.972135 188.529403 258.379764 169.338434 238.989778 95.97207 164.924008 52.992831 68.869656 45.495559-34.282512 45.396049-35.281863 45.396049-36.281218 45.396049-37.380076 46.095452-53.37255 59.189379-66.166529 75.581312-66.166529L485.089577-66.166529C495.783923-4.695725 500.281717 20.892234 502.180913 31.687508 481.790155 51.277935 412.023162 118.345395 412.023162 118.345395 411.623706 118.545833 411.423268 118.746274 411.12332 119.046222L411.12332 119.046222Z"  horiz-adv-x="1024" />

    
    <glyph glyph-name="gengduo" unicode="&#58907;" d="M262.974343 829.99675c107.659999 0 195.705264-88.068801 195.705264-195.473997 0-54.18918-21.814842-102.865809-57.199747-138.483005l-0.254803 0c-35.384905-35.894512-84.293825-57.728796-138.250714-57.728796-53.934376 0-103.098099 21.834284-138.483005 57.728796l-1.505283 1.760087c-34.644031 35.106566-55.716976 83.552951-55.716976 136.722918 0 53.703109 21.837354 102.889345 57.222259 138.505517C159.876244 808.159396 209.039967 829.99675 262.974343 829.99675L262.974343 829.99675zM102.399181 330.948737 102.399181 330.948737l0.995677 0 320.154647 0c19.568684 0 35.640732-15.562441 35.640732-35.639708l0-0.48607 0-320.40945c0-19.313881-16.072047-35.381835-35.640732-35.381835l-0.485047 0L102.399181-60.968327c-19.545148 0-35.130102 16.067954-35.130102 35.381835l0 0.744967L67.26908 295.310052C67.26908 315.387319 82.854033 330.948737 102.399181 330.948737L102.399181 330.948737zM388.419404 260.202463 388.419404 260.202463 138.03889 260.202463l0-250.40405 250.380514 0L388.419404 260.202463 388.419404 260.202463zM601.700975 829.99675 601.700975 829.99675l0.995677 0 320.154647 0c19.336394 0 35.130102-15.816221 35.130102-35.384905l0-0.76441 0-320.385914c0-19.313881-15.793708-35.381835-35.130102-35.381835l-0.995677 0L601.700975 438.079686c-19.568684 0-35.130102 16.067954-35.130102 35.381835l0 0.995677L566.570873 794.611845C566.570873 814.18053 582.133314 829.99675 601.700975 829.99675L601.700975 829.99675zM887.212614 758.995673 887.212614 758.995673 636.831077 758.995673l0-249.916956 250.380514 0L887.211591 758.995673 887.212614 758.995673zM601.700975 330.948737 601.700975 330.948737l0.995677 0 320.154647 0c19.336394 0 35.130102-15.562441 35.130102-35.639708l0-0.48607 0-320.40945c0-19.313881-15.793708-35.381835-35.130102-35.381835l-0.995677 0L601.700975-60.968327c-19.568684 0-35.130102 16.067954-35.130102 35.381835l0 0.744967L566.570873 295.310052C566.570873 315.387319 582.133314 330.948737 601.700975 330.948737L601.700975 330.948737zM887.212614 260.202463 887.212614 260.202463 636.831077 260.202463l0-250.40405 250.380514 0L887.211591 260.202463 887.212614 260.202463zM351.784018 722.360288 351.784018 722.360288c-22.810518 23.087834-54.18918 36.635385-88.809675 36.635385s-65.721841-13.547551-88.300069-36.635385c-22.601764-22.092158-36.635385-53.703109-36.635385-87.836511 0-34.107819 13.524015-64.957431 34.852786-87.559195l1.783623-1.25048c22.578228-22.578228 53.679573-36.635385 88.300069-36.635385s65.999157 13.802354 88.809675 36.635385l0 0c22.601764 22.578228 36.380582 53.702086 36.380582 88.809675 0 33.648354-13.268188 64.23907-35.361369 86.818321L351.784018 722.360288 351.784018 722.360288z"  horiz-adv-x="1024" />

    
    <glyph glyph-name="hongbao" unicode="&#58944;" d="M576 473.6 544 473.6 544 499.2c0 0 0 0 0 0L576 499.2c19.2 0 32 12.8 32 32 0 19.2-12.8 32-32 32L556.8 563.2l0 0 38.4 38.4c12.8 12.8 12.8 32 0 44.8-12.8 12.8-32 12.8-44.8 0L512 601.6 473.6 646.4c-12.8 12.8-32 12.8-44.8 0-12.8-12.8-12.8-32 0-44.8l38.4-38.4 0 0L448 563.2c-19.2 0-32-12.8-32-32C416 512 428.8 499.2 448 499.2l38.4 0c0 0 0 0 0 0l0-25.6L448 473.6c-19.2 0-32-12.8-32-32 0-19.2 12.8-32 32-32l38.4 0 0-44.8c0-19.2 12.8-32 32-32s32 12.8 32 32L550.4 409.6 576 409.6c19.2 0 32 12.8 32 32C608 460.8 595.2 473.6 576 473.6zM742.4 460.8c-19.2-108.8-115.2-192-230.4-192C403.2 268.8 307.2 345.6 288 448L128 544l0-486.4C128-12.8 185.6-64 249.6-64l524.8 0c70.4 0 121.6 57.6 121.6 121.6L896 550.4 742.4 460.8zM512 729.6c108.8 0 198.4-76.8 224-179.2L896 652.8 896 710.4C896 780.8 838.4 832 774.4 832L249.6 832C185.6 832 128 780.8 128 710.4L128 640l160-96C307.2 652.8 403.2 729.6 512 729.6z"  horiz-adv-x="1024" />

    
    <glyph glyph-name="vip2" unicode="&#58920;" d="M512-128c-281.6 0-512 230.4-512 512s230.4 512 512 512c281.6 0 512-230.4 512-512s-230.4-512-512-512v0zM747.52 563.2h-166.4v-56.32h43.52l-97.28-220.16-122.88 220.16h40.96v56.32h-197.12v-56.32h43.52l179.2-332.8h2.56c5.12-15.36 20.48-28.16 38.4-28.16 17.92 0 33.28 12.8 38.4 28.16h2.56l153.6 332.8h40.96v56.32zM747.52 563.2z"  horiz-adv-x="1024" />

    
    <glyph glyph-name="denglu-copy" unicode="&#58885;" d="M512 896c-280.278 0-512-231.722-512-512s231.722-512 512-512 512 231.722 512 512-231.722 512-512 512v0zM512 680.463c75.399 0 134.744-59.345 134.744-134.744 0-75.399-59.345-134.744-134.744-134.744-75.399 0-134.744 59.345-134.744 134.744 0 75.399 59.345 134.744 134.744 134.744v0zM743.722 173.726c-21.58-43.16-129.349-80.794-231.722-86.189-107.769 5.395-215.537 43.16-237.117 86.189-48.555 91.715 113.164 183.299 237.117 183.299 123.954 0 280.278-91.584 231.722-183.299v0zM743.722 173.726z"  horiz-adv-x="1024" />

    
    <glyph glyph-name="youxi" unicode="&#58886;" d="M823.957 573.577c-178.26 38.199-178.26-82.764-311.956-82.764s-133.695 127.329-311.956 82.764-267.391-630.278-133.695-630.278 222.826 165.528 445.651 165.528 311.956-165.528 445.651-165.528 44.565 585.713-133.695 630.278zM384.672 242.522h-82.764v-82.764h-89.13v82.764h-82.764v82.764h82.764v82.764h82.764v-82.764h89.13l-0-82.764zM766.659 178.858c-57.298 0-108.229 44.565-108.229 108.229s50.931 101.863 108.229 101.863 108.23-44.565 108.23-108.229-50.932-101.863-108.23-101.863zM512.001 554.478c19.099 0 38.199 6.366 57.298 12.733-6.366 12.733-12.733 31.832-12.733 57.298 0 44.565 0 44.565 0 44.565 0 44.565 38.199 82.764 82.764 82.764h171.894v82.764h-190.993c-82.764 0-152.795-70.031-152.795-152.795v-57.298c0-25.466-6.366-44.565-12.733-57.298 19.1-12.733 38.199-12.733 57.298-12.733z"  horiz-adv-x="1024" />

    
    <glyph glyph-name="mima" unicode="&#58895;" d="M780.99456 476.672H376.91904V626.36032c0 49.57696 60.31872 104.74496 134.66112 104.74496 74.368 0 134.7584-55.168 134.7584-104.74496v-44.928h0.52736a52.29568 52.29568 0 0 1 51.77344-44.89728c26.4448 0 48.22016 19.5072 51.8656 44.89728h0.59392v44.92288c0 115.712-107.27936 209.52576-239.5136 209.52576-132.21376 0-239.4624-93.81376-239.4624-209.52576V476.672h-29.95712c-49.55136 0-89.7536-40.20736-89.7536-89.78944v-359.2192c0-49.58208 40.20224-89.77408 89.7536-89.77408h538.8288c49.61792 0 89.78432 40.192 89.78432 89.77408v359.2192c0 49.58208-40.1664 89.78944-89.78432 89.78944z m-224.47616-331.52v-40.93952c0-25.71264-20.1216-46.54592-44.93824-46.54592-24.7552 0-44.90752 20.83328-44.90752 46.54592v40.9344c-35.36384 16.57344-59.88864 52.1728-59.88864 93.42976 0 57.11872 46.96064 103.43424 104.79616 103.43424 57.89696 0 104.79616-46.31552 104.79616-103.43424 0-41.25184-24.46336-76.85632-59.85792-93.42976z"  horiz-adv-x="1024" />

    
    <glyph glyph-name="new1" unicode="&#58957;" d="M669.165373 181.571728c111.777561 57.260787 188.614011 173.364263 188.614012 307.295631 0 190.438575-154.985522 345.347305-345.511127 345.347305S166.757131 679.306958 166.757131 488.867359c0-135.805078 79.057258-253.223223 193.403747-309.603469-67.787352-53.232822-109.285424-138.674005-109.440031-229.832562a15.665445 15.665445 0 0 1 4.558338-11.068201 15.645992 15.645992 0 0 1 11.067176-4.577791h499.675493c4.153903 0 8.122482 1.650503 11.058985 4.577791a15.668517 15.668517 0 0 1 4.558337 11.068201c-0.155631 92.781416-42.821956 179.091878-112.473803 232.1404z m-60.909914 461.548051l4.885981-113.255028 50.123282 113.255028h39.586479l8.595517-115.176861 45.623306 115.176861h33.511767l-69.120451-164.894684h-35.3179l-11.106084 123.270673-54.468652-123.270673H584.467532l-10.27469 164.894684h34.062617z m-171.741405 0h122.246789l-4.906459-27.891661h-88.965396l-6.442286-36.544515h82.776009l-4.906458-27.794391h-82.785224l-7.909515-44.869726h92.125106l-4.906458-27.794391H407.443902l29.070152 164.894684z m-145.183867-57.367271l-18.976691-107.528437h-30.924408l29.088582 164.894684h32.382421l48.056058-110.126034 19.431296 110.126034h30.914169l-29.070152-164.894684h-33.396068l-47.505207 107.528437z m221.304622-283.740125c-59.364871 0-114.790855 26.480746-152.126834 72.664117-5.418401 6.6829-10.874686 18.600925 0.08703 29.571856 10.304382 12.864095 25.824436 9.136129 31.261267 2.433776 31.349321-38.814469 70.906107-57.994913 120.778537-57.994913 50.161166 0 86.619675 17.354856 118.016094 56.565569 6.992113 9.927592 16.640184 12.515974 31.696418 1.487705 13.945318-10.855232 12.01427-21.169853 3.02251-31.310413-37.364647-46.647192-93.021006-73.417697-152.735022-73.417697z"  horiz-adv-x="1024" />

    
    <glyph glyph-name="new" unicode="&#58958;" d="M401.760315 642.069272h-30.792327L351.615531 532.392724l-47.872782 109.677572H271.486266l-28.964692-164.218919h30.792327l18.90809 107.093285 47.308622-107.093285h33.255795l28.973907 164.217895z m135.896203-136.545347h-91.764698l7.884941 44.686451h82.44427l4.880862 27.692003h-82.444271l6.43 36.390932h88.607036l4.899291 27.778009H436.820196l-28.955477-164.218919h124.891484l4.900315 27.671524z m127.111268-130.059033c8.955925 10.104724 10.869567 20.362007-3.023533 31.17526-14.985586 10.985266-24.611132 8.420433-31.558194-1.473371-31.270482-39.040747-67.593837-56.340314-117.543059-56.340314-49.680964 0-89.065737 19.099557-120.298335 57.757372-5.416353 6.678804-20.87907 10.391412-31.141472-2.41125-10.917689-10.927928-5.473691-22.792711-0.076791-29.453086 37.189563-45.987809 92.382101-72.37743 151.516598-72.377429 59.460092-0.002048 114.902459 26.655831 152.124786 73.122818z m3.788376-193.079175c111.32398 57.029389 187.835858 172.67826 187.835858 306.066968 0 189.672709-154.364023 343.95994-344.131953 343.959941-189.754619 0-344.117619-154.287232-344.117619-343.959941 0-135.263442 78.740877-252.213672 192.638904-308.363543-67.526261-53.030093-108.844129-138.115987-109.016142-228.923353a15.53234 15.53234 0 0 1 4.554242-11.003695 15.535412 15.535412 0 0 1 11.013935-4.57472h497.676868c4.133425 0 8.075384 1.646408 11.023149 4.57472a15.552818 15.552818 0 0 1 4.535812 11.003695c-0.172013 92.415889-42.65711 178.381301-112.013054 231.219928zM207.040875 488.452685c0 168.199786 136.938519 305.071752 305.220216 305.071752 112.28848 0 210.606044-60.941655 263.619754-151.454141h-19.788631L710.64092 527.359304l-8.554562 114.710992h-39.42368l-49.929768-112.797351-4.861408 112.797351h-33.930535l10.238853-164.218919h35.958852l54.25466 122.766922 11.062057-122.766922h35.174556l62.970996 150.223431c21.655175-41.862575 33.902891-89.340138 33.902891-139.622123 0-168.199786-136.948758-305.071752-305.243765-305.071752-168.280673 0-305.219191 136.870942-305.219192 305.071752z m81.41117-518.360375c5.176764 87.783832 44.01683 145.541203 107.68202 194.974387 36.341786-13.071944 75.344649-20.592382 116.127026-20.592382 42.255747 0 82.558945 8.038524 119.972739 22.008415 67.077799-48.954005 106.308989-105.447902 111.648551-196.39042H288.452045z"  horiz-adv-x="1024" />

    
    <glyph glyph-name="weibo" unicode="&#58971;" d="M462.683012 418.970228c-97.737303-10.76007-172.161121-69.043783-164.987741-131.810858 6.276708-62.767075 91.460595-104.910683 189.197899-94.150613 97.737303 10.76007 172.161121 69.043783 164.987741 131.810858-6.276708 62.767075-91.460595 104.910683-189.197899 94.150613z m-1.793345-206.234676c-51.110333-2.690018-93.25394 31.383538-89.66725 79.803853 2.690018 48.420315 44.833625 85.183888 95.047285 85.183887 51.110333 0 90.563923-35.8669 88.770578-80.700525-1.793345-44.833625-43.04028-81.597198-94.150613-84.287215zM481.513135 308.67951m-11.656743 0a11.656743 11.656743 0 1 1 23.313485 0 11.656743 11.656743 0 1 1-23.313485 0ZM434.886165 304.196147c-18.830123 0-34.073555-13.450088-33.176883-28.69352 0-16.140105 14.34676-27.796848 31.383538-26.003503 17.036778 0.896673 32.28021 13.450088 32.28021 27.796848 0.896673 15.243433-10.76007 27.796848-30.486865 26.900175zM511.103327 896c-282.451839 0-511.103327-228.651489-511.103327-511.103327s228.651489-511.103327 511.103327-511.103328 511.103327 228.651489 511.103328 511.103328-228.651489 511.103327-511.103328 511.103327z m147.950964-384.672504c-0.896673 0-0.896673 0 0 0h-3.58669c-9.863398 0-17.036778 7.17338-17.036778 15.243432 0 8.070053 6.276708 14.34676 15.243433 15.243433 112.084063 7.17338 87.873905-84.287215 87.873905-84.287216-0.896673-6.276708-7.17338-10.76007-13.450087-10.76007-8.070053 0-13.450088 6.276708-13.450088 14.34676 0 1.793345 0 3.58669 0.896672 5.380035 0.896673 53.80035-46.62697 47.523643-56.490367 44.833626z m85.183888-190.991244c0-13.450088-0.896673-60.077058-87.873906-118.36077-126.430823-77.113835-341.632224-50.21366-400.812609 69.043782-6.276708 14.34676-18.830123 54.697023 0 99.530648 10.76007 27.796848 93.25394 129.120841 118.36077 141.674256 21.52014 22.416813 90.563923 53.80035 121.947461 45.730298 31.383538-8.070053 38.556918-43.04028 30.486865-69.043783-5.380035-16.140105 6.276708-23.313485 15.243433-18.830123 8.070053 1.793345 11.656743 10.76007 38.556917 18.830123 34.970228 6.276708 52.007005 8.966725 79.803853-11.656743 28.69352-19.726795 7.17338-60.97373 7.17338-60.97373s-8.070053-12.553415 3.58669-15.243432c79.803853-26.900175 73.527145-67.250438 73.527146-80.700526z m82.49387 120.154116c-2.690018-10.76007-12.553415-17.93345-23.313485-17.93345-12.553415 0.896673-22.416813 11.656743-22.416813 24.210157 0 2.690018 0.896673 4.483363 1.793345 7.17338 17.93345 135.397548-117.464098 127.327496-117.464098 127.327496h-3.58669c-12.553415 0.896673-21.52014 11.656743-21.52014 24.210158 0.896673 11.656743 8.966725 20.623468 19.726795 21.52014H665.330998c201.751313-11.656743 161.401051-186.507881 161.401051-186.507881z"  horiz-adv-x="1024" />

    
    <glyph glyph-name="invite" unicode="&#59071;" d="M510.561-61.8c-247.113 0-447.438 200.325-447.438 447.438s200.325 447.438 447.438 447.438 447.438-200.325 447.438-447.438-200.325-447.438-447.438-447.438zM269.45 610.687l-24.47-80.749c30.988-6.939 62.799-17.539 95.431-31.811l23.858 83.197c-25.693 13.047-57.303 22.834-94.819 29.363zM780.247 449.191l-75.855 24.468c-79.639-203.916-182.111-380.050-307.275-537.32 276.276 496.535 264.041 504.689 250.996 512.853l-39.763-44.045-1.225 17.13c-172.76-19.456-374.617-31.253-578.963-32.561 447.898 110.724 384.607 183.605 310.388 243.483l226.365-203.582c32.623 0 53.623 10.801 63.008 32.421 2.446 4.895 4.484 10.6 6.118 17.13l48.939-15.905c52.408 173.51 121.191 324.509 207.054 463.863-162.607-420.429-131.61-424.512-99.389-428.994l6.73 72.796c-23.657 4.072-48.127 7.542-73.408 10.401 98.916 243.998 225.4 454.5 379.23 641.677l-435.509-568.271c-9.386-26.514-19.986-55.878-31.809-88.088-2.448 13.047-6.529 22.834-12.234 29.363-8.975 14.681-23.456 24.669-43.433 29.974-6.118 2.447-14.681 4.283-25.692 5.505 72.365 26.945 156.146 45.365 243.316 51.507l-232.918 12.725c-35.48-10.609-72.796-23.456-111.948-38.539l3.671-12.847-35.48 7.34c-32.632-54.242-48.939-102.159-48.939-143.757 0-30.587 16.106-52.408 48.326-65.455 13.047-4.492 28.341-7.752 45.88-9.788l-20.799-7.951c11.049-28.336 25.751-52.77 43.875-74.22-139.977 52.041-260.712 48.357-382.264 48.159l264.981-54.689c15.082 0.402 29.975 1.015 44.656 1.836-11.011-31.409-23.657-66.278-37.927-104.605l69.126-22.023c39.625 129.927 92.899 243.096 159.831 346.609-120.077-280.154-97.532-277.336-74.377-277.053-5.929-1.042 2.023-5.935 2.023-15.724-1.225-12.234-7.752-26.304-19.577-42.21l23.247-5.505c-34.669-7.341-66.89-11.012-96.654-11.012-37.116 0-63.62 4.895-79.526 14.684-17.128 9.786-25.692 25.080-25.692 45.878 0 42 9.987 90.327 29.975 144.98l-95.431 21.41c-19.575-68.513-29.363-129.687-29.363-183.519 0-42.822 19.165-75.855 57.502-99.101 35.070-18.352 77.28-27.528 126.628-27.528h26.304c49.34 0 101.549 7.951 156.603 23.858l-15.904 75.243c10.599 21.611 15.904 38.128 15.904 49.551 0 22.021-9.586 38.127-28.751 48.327-17.128 8.965-36.913 13.457-59.337 13.457-9.788 0-19.988-0.612-30.587-1.835 7.693 20.107 17.897 37.466 30.481 52.797 111.369-32.251 235.031-16.467 356.595 5.363l-267.789-11.668c137.384-112.049 249.842-248.867 331.713-404.303-1792.38-3237.235-2857.719-7414.441-3281.11-11779.555l3031.369 12026.033c6.93 20.387 14.472 41.597 22.635 63.62 150.008-150.081 269.926-330.253 349.92-530.681l-254.49 536.187c-57.241 78.507-130.586 141.817-215.503 185.931 370.655 394.717 648.028 830.316 983.043 1214.321zM445.017 509.753c24.47-1.636 52.398-4.695 83.807-9.176l9.176 53.832c-25.291 4.893-50.984 8.152-77.077 9.786 17.529 2.849 35.881 4.283 55.054 4.283 22.023 0 35.682-1.634 40.987-4.893 8.564-5.305 12.847-17.339 12.847-36.092 0-10.61-0.823-17.539-2.448-20.799-1.634-5.716-3.669-9.176-6.118-10.401-3.669-2.447-8.161-3.671-13.457-3.671-43.643 0-72.596 2.446-86.865 7.341-6.53 2.037-11.835 5.296-15.906 9.789z"  horiz-adv-x="1024" />

    
    <glyph glyph-name="1122-v2-06" unicode="&#58928;" d="M878.216 415.514c-80.717 0-145.786-63.39-145.786-142.026 0-78.634 65.07-142.026 145.786-142.026S1024 194.854 1024 273.488c-0.824 78.636-65.89 142.026-145.784 142.026z m68.361 85.86C890.57 706.788 704.426 844.803 482.044 844.803c-221.56 0-408.526-137.211-465.358-342.628C-40.146 296.759 51.279 88.936 244.01-15.38c192.733-105.112 425.825-73.017 580.668 78.638l-343.46 321.763 465.358 116.352zM406.27 634.572c0 48.948 40.357 89.067 88.951 89.067 49.42 0 88.955-40.12 88.955-89.067 0-48.949-40.36-89.068-88.955-89.068-48.594 0.801-88.951 40.12-88.951 89.068z"  horiz-adv-x="1024" />

    
    <glyph glyph-name="vip1" unicode="&#58887;" d="M779.71 326.527c-44.123-64.146-104.933-141.27-157.585-186.877-38.562-33-109.383-84.17-165.371-74.9-144.236 24.101-113.462 376.721-210.237 456.069-44.495 12.978-65.63-55.247-90.102-14.831-38.191 31.887 37.079 87.506 75.27 119.765 46.719 39.675 102.708 96.035 165.001 71.562 121.619-47.832 34.483-337.788 150.169-400.822 59.697 47.832 126.809 127.18 112.719 224.327-11.495 32.258-66.001 22.248-97.517 14.831-1.853 148.315 291.069 261.777 315.171 60.067 12.978-123.472-97.517-269.192-97.517-269.192v0zM779.71 326.527z"  horiz-adv-x="1024" />

    
    <glyph glyph-name="jingcai" unicode="&#58914;" d="M512-128C229.233778-128 0 101.233778 0 384S229.233778 896 512 896s512-229.233778 512-512-229.233778-512-512-512z m81.607111 662.272c17.066667-12.288 27.989333-33.450667 32.085333-62.805333h72.362667c-6.826667 49.152-23.893333 85.333333-51.882667 107.178666-24.576 19.797333-56.661333 31.402667-97.649777 34.133334V668.757333h-42.325334v-55.978666c-39.594667-2.048-71.68-12.288-97.621333-31.402667-34.133333-23.893333-51.2-58.026667-51.2-102.4 0-50.517333 23.893333-88.064 71.68-113.322667l77.141333-28.700444v-166.570667c-23.210667 2.730667-40.96 10.24-53.248 22.528-16.384 15.701333-25.258667 42.325333-27.989333 79.189334h-73.728c4.096-55.978667 19.797333-96.938667 48.469333-124.245334 24.576-23.893333 60.074667-37.546667 106.496-40.277333v-60.074667h42.325334v60.074667c42.353778 2.730667 76.487111 12.970667 103.793777 30.72 35.498667 24.576 53.930667 60.757333 53.930667 109.226667 0 49.152-23.893333 86.698667-70.997333 113.322666-6.826667 2.759111-36.181333 14.364444-86.727111 33.479111v156.330667c18.460444-2.048 33.479111-7.509333 45.084444-16.384z m-161.820444-55.296c0 25.941333 8.874667 45.056 27.989333 57.344 11.605333 8.192 27.306667 13.653333 46.421333 15.018667v-141.312c-1.365333 0-2.048 0.682667-2.730666 0.682666-47.786667 17.749333-71.68 40.277333-71.68 68.266667z m200.732444-234.183111c0-23.893333-10.24-42.325333-29.354667-55.978667-15.018667-9.557333-32.768-15.701333-54.641777-18.432v151.552c4.096-1.365333 8.220444-3.413333 12.316444-4.778666 47.786667-16.384 71.68-40.96 71.68-72.362667z"  horiz-adv-x="1024" />

    
    <glyph glyph-name="jingcai1" unicode="&#58970;" d="M65.868454 379.394888l65.00376 9.263885-69.406996 88.699168c-5.230058 6.85812-6.287121 12.250882-5.564676 14.47757 0.723469 2.227712 4.396073 5.919759 12.352188 8.08812l278.192843 76.905698 156.065714 250.236437c3.95094 6.331123 8.569068 10.258527 12.073852 10.258527s8.122912-3.927404 12.29693-10.023169l155.787378-250.470772 260.827535-72.353061 80.463693 11.467039c-8.164867 19.544925-25.738927 34.080823-48.854126 40.48767L717.445087 627.65125 573.118608 859.305683c-14.520549 23.329068-35.885915 36.694317-58.587704 36.694317-22.700765-0.058328-44.065108-13.305898-58.587703-36.752645L311.673003 627.592923 54.065775 556.549679c-25.593619-7.211156-44.232928-23.974767-51.18826-46.894517-6.954309-22.918727-1.001805-48.182845 15.690174-69.812221l47.300765-60.448053zM849.847116 91.082686l-54.971381-7.834342 7.030034-135.144459c0.95371-5.703844-0.488111-11.563228-3.950941-16.060607-4.796181-2.072171-10.218619-1.792812-14.799908 0.761331L514.587185 40.483843 245.907912-66.844401c-7.790341-3.16505-12.798344-2.579725-14.85619-0.996688-2.058869 1.583037-4.339792 6.798769-3.838377 16.236613l2.837595 54.351264-56.106214-7.997046-2.259434-43.366198c-1.22386-28.311489 8.234451-52.696597 26.594401-66.823177 10.994276-8.33371 24.23673-12.730807 37.779009-12.544567a80.10247 80.10247 0 0 1 29.711356 6.095765l248.816104 99.649442 248.48251-99.766098c24.591813-9.789858 49.01683-7.502795 67.433061 6.740441 18.417254 14.244259 28.09762 38.511689 26.595424 66.588843l-7.250041 139.758493zM448.580597 354.809215l-11.304334-26.394859 66.897878 9.902421 0.227171-40.126447-437.912741-64.774542-0.227172 40.127471 66.461955 9.828743-11.146747 23.082454 88.021746 13.013236 11.146747-23.082454 128.511463 19.013836 11.304334 26.394858 88.0197 13.015283zM247.221822 131.737153l-68.24351-84.210997-134.497736-24.07812 4.201647 34.149384 62.322728 13.396972 39.389675 46.421755 96.827196 14.321006z m-6.629925 237.318368l-0.08698 14.541014 88.021746 13.013237 0.08698-14.541015 157.557678 23.303485 0.227171-40.126447-403.137101-59.619184-0.227172 40.126447 157.557678 23.302463z m242.302835-85.057263l0.61193-108.913326-88.012537-13.031656-0.402155 71.878252-218.742502-32.358618 0.192379-34.825782 218.742503 32.340199 0.209775-37.034051-306.764248-45.372878-0.611931 108.913327 394.776786 58.404533zM324.663726 69.062412l-0.41955 74.069126 88.021746 13.031655 0.227171-40.56851 80.54351 11.909101-18.301622-36.243045L324.663726 69.062412zM565.290405 356.189639l-48.343502 59.03079 76.132087 11.264426 10.648403-11.651232 9.111414 22.511456 66.470141 9.828744-5.651656-14.063137 93.306039 13.805267-0.08698 14.541014 72.175008 10.676032 0.08698-14.541015 174.899449 23.954301-14.601389-36.593011-160.096471-23.954301 0.061398-10.583935 96.827195 14.319983 0.209775-36.150948-96.827195-14.319983 0.061398-10.583935 104.750564 15.498818 0.200566-36.593011-281.238167-41.598968-0.200566 36.593011 104.313618 15.425141-0.061397 10.583935-96.827196-14.319983-0.209775 36.150948 96.827195 14.319983-0.061397 10.583935-98.583169-14.577853-0.130982 24.241847-22.590249-56.729401 1.39782-246.46662-98.146222-14.522595-18.292413 39.648568 47.967953 7.086315-0.261963 46.311239-71.160923-33.463777-0.340757 59.969151 71.160923 33.904817-0.261963 46.716464-71.160923-33.445358-0.331548 58.625565 58.858877 28.567313z m107.833751-62.583668l0.978269-172.839558 72.175008 10.676032-0.200566 35.708884 117.513094 17.375541 0.052188-10.141872-11.295125-27.260565 83.181564 12.295906-0.97827 172.839558-261.426162-38.653926z m189.958251-20.449518L745.569313 255.762493l-0.069584 12.774809 117.513094 17.39396 0.069584-12.774809z m-117.294109-55.312137l117.513094 17.39396 0.069584-13.234268-117.513094-17.375541-0.069584 13.215849zM1023.672106 71.947079c-0.696864 2.266597-2.55926 3.919218-4.794135 4.257928l-36.841672 5.6404-16.478111 35.174725c-0.999759 2.136639-3.064767 3.489434-5.326248 3.489434s-4.325466-1.352795-5.326248-3.489434l-16.478111-35.174725-36.845765-5.6404c-2.238968-0.342804-4.096248-1.991331-4.794135-4.257928-0.696864-2.266597-0.114609-4.751156 1.504243-6.412987l26.661938-27.379267-6.294284-38.659043c-0.380666-2.348461 0.532113-4.721481 2.362787-6.123394 1.830674-1.401913 4.252812-1.585083 6.257446-0.473786l32.956222 18.254551 32.951107-18.254551a5.70896 5.70896 0 0 1 2.761871-0.720399 5.727379 5.727379 0 0 1 3.491481 1.194185c1.830674 1.401913 2.743453 3.774933 2.362787 6.123394l-6.294284 38.659043 26.661938 27.379267c1.615782 1.66183 2.19906 4.146389 1.501173 6.412987zM343.61514 489.04601c-0.647745 2.035333-2.37609 3.385058-4.450307 3.477155l-34.203619 1.578943-15.298253 31.02015c-0.928128 1.883885-2.844759 2.935832-4.944559 2.710707s-4.016431-1.685366-4.944559-3.768794l-15.298253-34.291622-34.207711-8.894475c-2.078311-0.541323-3.803586-2.255341-4.450308-4.428819-0.647745-2.173478-0.106423-4.421656 1.396797-5.80515l24.753494-22.772395-5.843012-36.516265c-0.353037-2.218502 0.494251-4.330582 2.19292-5.450066 1.699692-1.119484 3.94787-1.0499 5.809243 0.181123l30.596506 20.219276 30.592412-13.676331a4.983444 4.983444 0 0 1 2.564376-0.393968c1.140973 0.121772 2.28297 0.616023 3.240774 1.455124 1.699692 1.482754 2.54698 3.77698 2.19292 5.919759l-5.843012 35.266822 24.753494 28.065898c1.49708 1.703785 2.038403 4.067596 1.390657 6.102928z"  horiz-adv-x="1024" />

    
    <glyph glyph-name="youxi1" unicode="&#58905;" d="M826.31211 569.6c-179.2 38.4-179.2-83.2-313.6-83.2s-134.4 128-313.6 83.2C19.91211 524.8-69.68789-64 64.71211-64s224 166.4 448 166.4 313.6-166.4 448-166.4 44.8 588.8-134.4 633.6z m-441.6-332.8h-83.2v-83.2h-89.6v83.2h-83.2V320h83.2v83.2h83.2V320h89.6v-83.2z m384-64c-57.6 0-108.8 44.8-108.8 108.8s51.2 102.4 108.8 102.4 108.8-44.8 108.8-108.8-51.2-102.4-108.8-102.4zM512.71211 550.4c19.2 0 38.4 6.4 57.6 12.8-6.4 12.8-12.8 32-12.8 57.6v44.8c0 44.8 38.4 83.2 83.2 83.2h172.8V832h-192c-83.2 0-153.6-70.4-153.6-153.6v-57.6c0-25.6-6.4-44.8-12.8-57.6 19.2-12.8 38.4-12.8 57.6-12.8z"  horiz-adv-x="1026" />

    
    <glyph glyph-name="svip1-copy" unicode="&#58889;" d="M7319.383-709.605c0-140.818-133.041-254.43-297.13-254.43h-6667.249c-164.389 0-297.148 113.612-297.148 254.43v2187.070c0 140.537 132.763 254.588 297.148 254.588h6667.249c164.089 0 297.13-114.068 297.13-254.588v-2187.070zM4557.569 1038.979h-122.492c-0.005 0-0.027 0-0.037 0-67.494 0-122.212-54.717-122.212-122.212 0-0.054 0-0.112 0-0.17v-1224.852c0-67.071 54.597-122.247 122.247-122.247h122.492c67.641 0 123.073 54.855 123.073 122.247v1224.858c-0.262 67.232-55.436 122.371-123.073 122.371zM3823.201 1038.979h-245.044v-857.163c3.743-195.131-244.602-245.044-244.602-245.044s-245.044 49.933-245.044 245.044v857.163h-245.141c-67.577-0.025-122.349-54.797-122.371-122.367v-857.327c3.743-12.761 431.175-493.664 489.645-490.069h245.003c69.986 0 489.95 492.259 489.95 490.069v857.322c0 67.232-54.917 122.371-122.393 122.371zM5843.412 1038.979h-367.537c-41.876 0-82.607-8.041-121.124-19.249-18.285 10.933-39.362 19.249-62.636 19.249h-122.529c-0.002 0-0.005 0-0.023 0-67.494 0-122.212-54.717-122.212-122.212 0-0.054 0-0.112 0-0.17v-1224.852c0-67.071 54.612-122.247 122.233-122.247h122.529c67.614 0 122.775 54.855 122.775 122.247v373.646c20.255-2.794 40.189-6.083 60.983-6.083h367.537c236.684 0 428.804 192.081 428.804 428.804v122.492c0 236.421-192.117 428.379-428.804 428.379zM5905.223 426.276c0-67.334-55.136-122.515-123.057-122.515h-367.277v490.047h367.277c67.614 0 123.057-54.612 123.057-122.789v-244.741zM2115.905 549.351h130.001c45.171 0 84.533 21.338 107.808 54.336 0 92.028-18.145 151.346-45.716 190.128h2.917c-69.024 144.413-215.126 244.884-385.717 244.884-21.058 0-41.13-4.022-61.105-7.055v7.055h-367.553v-5.949c-207.21-29.803-367.236-206.786-367.236-422.411 0-231.724 183.878-419.681 413.793-427.419 0 0-0.545-0.863-0.823-1.106h321.823c67.594-0.042 122.371-54.852 122.371-122.451 0-0.029 0-0.054 0-0.084v-122.787c0-67.355-54.753-122.529-122.371-122.529h-367.553v122.529c0 67.614-57.77 122.789-129.726 122.789h-129.99c-44.785 0-84.554-21.62-107.844-54.635-0.262-93.095 18.989-152.429 48.227-190.427h-5.686c69.024-144.114 215.527-244.741 385.821-244.741 20.935 0 41.030 4.157 61.266 6.913v-6.913h367.277v5.806c207.452 30.221 367.236 207.069 367.236 422.432 0 230.879-182.815 417.43-411.18 427.393 0.262 0 0.262 1.106 0.545 1.106h-324.172c-0.002 0-0.005 0-0.023 0-67.726 0-122.631 54.906-122.631 122.631 0 0.154 0 0.31 0 0.463v121.947c0 0.045 0 0.105 0 0.16 0 67.563 54.77 122.331 122.331 122.331 0.112 0 0.226 0 0.339 0h367.257v-122.492c0.599-67.577 58.534-121.91 130.329-121.91z"  horiz-adv-x="7401" />

    
    <glyph glyph-name="tixian" unicode="&#59024;" d="M607.5 384.6c15.6 0 24.9 12.1 24.9 27.8 0 15.7-9.2 26.8-24.9 26.8h-60.3l62.3 62.6c11.1 11.2 11.1 29.3 0 40.5s-29.2 11.2-40.4 0l-57.7-57.9L454 542.1c-11.1 11.2-29.2 11.2-40.3 0-11.1-11.2-11.1-29.3 0-40.5l62.2-62.4h-59.4c-15.6 0-24.9-11.1-24.9-26.8 0-15.7 9.2-27.8 24.9-27.8h61.4v-34.1h-61.4c-15.6 0-24.9-10.2-24.9-25.9s9.2-28.7 24.9-28.7h61.4v-41c0-19.6 14.6-34.1 34.1-34.1 19.6 0 34.1 14.5 34.1 34.1v41h63.2c15.6 0 23.1 10.5 23.1 26.2 0 20.4-10.9 28.4-26.5 28.4h-59.8v34.1h61.4zM510.8 865.5c-265 0-479.7-214.8-479.7-479.7 0-265 214.8-479.7 479.7-479.7 265 0 479.7 214.8 479.7 479.7S775.7 865.5 510.8 865.5zM452.9 671.7c16.2 13.1 36.7 20.9 59.1 20.9 22.2 0 42.6-7.7 58.7-20.6L836 439.7c5.8-6.7 9.4-15.3 9.4-24.8 0-17.4-11.7-31.8-27.6-36.3 0 0-3.8-1.5-9.4-1.5h-78.2v-242.3c0-34.9-26.2-60.6-61-60.6H354.7c-34.7 0-61 25.8-61 60.6V377.2H217c-0.3 0-0.5-0.1-0.7-0.1-0.3 0-0.5 0.1-0.7 0.1h-0.9v0.1c-20.1 0.9-36.1 17.4-36.1 37.7 0 9.2 3.4 17.6 8.9 24.2L452.9 671.7z"  horiz-adv-x="1024" />

    
    <glyph glyph-name="zuanshi" unicode="&#58893;" d="M1001.472 594.944L783.36 812.032c-8.192 8.192-18.432 12.288-29.696 12.288H270.336c-11.264 0-21.504-4.096-29.696-12.288L22.528 594.944c-8.192-8.192-12.288-18.432-12.288-29.696v-86.016c0-10.24 4.096-20.48 10.24-27.648l460.8-515.072c16.384-18.432 45.056-18.432 61.44 0l460.8 515.072c7.168 7.168 10.24 17.408 10.24 27.648v86.016c0 11.264-4.096 21.504-12.288 29.696z m-70.656-128L512-2.048 93.184 466.944v99.328l202.752 201.728h433.152L931.84 566.272v-99.328zM295.936 769.024L93.184 567.296v-99.328L512-2.048l418.816 468.992v99.328L728.064 769.024H295.936z m216.064-614.4L200.704 570.368h184.32l-14.336-38.912L512 338.944l141.312 191.488-14.336 38.912h184.32L512 154.624zM653.312 531.456L512 338.944 370.688 531.456l14.336 38.912h-184.32L512 155.648v-1.024l311.296 414.72h-184.32z"  horiz-adv-x="1024" />

    
    <glyph glyph-name="icon-test" unicode="&#58890;" d="M43.092032 494.141214c-24.239268 0-43.092032-18.852764-43.092032-43.092032v-533.263898c0-26.93252 18.852764-45.785284 43.092032-45.785284h123.889593V494.141214H43.092032z m961.490968-16.159512c-21.546016 37.705528-67.3313 64.638048-110.423333 61.944796h-237.006177c16.159512 48.478536 24.239268 102.343576 24.239268 153.515365 0 35.012276-2.693252 67.3313-10.773008 102.343576-16.159512 67.3313-80.79756 113.116584-148.12886 96.957073-56.558292-13.46626-99.650324-64.638048-96.957072-126.582845V760.773163c0-113.116584-72.717804-215.460161-177.754633-250.472437V-128h562.88967c24.239268 0 48.478536 8.079756 67.3313 21.546016s32.319024 29.625772 43.092032 48.478536l2.693252 2.693252c2.693252 5.386504 5.386504 8.079756 5.386504 13.46626L1023.435764 383.717882v13.46626 5.386504c2.693252 24.239268-5.386504 51.171788-18.852764 75.411056z"  horiz-adv-x="1024" />

    
    <glyph glyph-name="guanggaopai" unicode="&#58892;" d="M987.490662 412.3382s-53.894737 163.42275-90.751783 229.834975c-37.204754 66.412224-128.304244-173.85399-163.42275-250.697453S613.009168 466.580645 587.626486 496.135823c-25.034975 29.555178-75.104924-121.002377-108.832598-146.385059-34.075382-25.034975-109.875722-65.021392-145.341936 0-35.466214 65.021392-72.670968 62.587436-72.670967 62.587436v-188.110017h726.709677v188.110017z m-253.479117 318.50051h-462.451613v-44.158914h462.451613V730.83871z m198.193548 121.002377V896h-99.096774v-44.158913H414.81562V896H315.718846v-44.158913H172.810866v-715.583022h143.255687v-264.258065h99.096775v264.258065h418.292699v-264.258065h99.096774v264.258065h143.255688V851.841087h-143.603396z m77.191172-649.518506H238.875382V785.77657h770.868591v-583.453989h-0.347708z m-396.387097 440.54601H271.90764v-44.158914h341.449236l-0.347708 44.158914z"  horiz-adv-x="1248" />

    
    <glyph glyph-name="paimingbang" unicode="&#58908;" d="M506.368 130.56c-14.848 0-30.208-4.608-44.544-8.192-36.864-8.704-77.312-13.312-110.08 10.752-15.872 11.776-28.672 26.112-40.448 41.472-9.216 11.264-17.92 25.6-30.208 33.792-2.048 1.536-3.584 2.56-5.632 3.584l-59.904-173.056-31.232-89.6 154.624 69.12L423.936-128l29.696 84.992 59.904 173.056c-2.56 0-4.608 0.512-7.168 0.512zM517.632 130.56c14.848 0 30.208-4.608 44.544-8.192 36.864-8.704 77.312-13.312 110.08 10.752 15.872 11.776 28.672 26.112 40.448 41.472 9.216 11.264 17.92 25.6 30.208 33.792 2.048 1.536 3.584 2.56 5.632 3.584l59.904-173.056 31.232-89.6-144.896 50.176-94.72-127.488-29.696 84.992-59.904 173.056c2.56 0 4.608 0.512 7.168 0.512zM853.504 630.784c-12.288 37.888-1.024 88.064-24.064 119.808-23.04 31.744-74.752 36.352-106.496 59.904C691.2 833.024 671.232 880.64 633.344 892.928c-36.352 11.776-80.896-14.336-121.344-14.336-40.448 0-84.48 26.112-121.344 14.336C352.768 880.64 332.8 833.024 301.056 809.984c-31.744-23.04-83.456-27.648-106.496-59.904-23.04-31.744-11.776-81.92-24.064-119.808-11.776-36.352-51.2-70.144-51.2-111.104 0-40.448 38.912-74.24 51.2-111.104 12.288-37.888 1.024-88.064 24.064-119.808 23.04-31.744 74.752-36.352 106.496-59.392 31.744-23.04 51.712-70.656 89.6-82.944 36.352-11.776 80.896 14.336 121.344 14.336 40.448 0 84.992-26.112 121.344-14.336 37.888 12.288 57.856 59.904 89.6 82.944 31.744 23.04 83.456 27.648 106.496 59.904 23.04 31.744 11.776 81.92 24.064 119.808 11.776 36.352 51.2 70.656 51.2 111.104-0.512 40.448-39.424 74.24-51.2 111.104zM512 208.384c-171.52 0-311.296 139.776-311.296 311.296S340.48 830.976 512 830.976s311.296-139.776 311.296-311.296-139.776-311.296-311.296-311.296z m0 611.84c-165.888 0-300.544-134.656-300.544-300.544 0-165.888 134.656-300.544 300.544-300.544 165.888 0 300.544 134.656 300.544 300.544 0 165.888-134.656 300.544-300.544 300.544zM784.384 519.68c0-150.528-121.856-272.384-272.384-272.384-150.528 0-272.384 121.856-272.384 272.384 0 150.528 121.856 272.384 272.384 272.384 150.528 0 272.384-121.856 272.384-272.384zM753.664 519.68c0-133.632-108.032-241.664-241.664-241.664S270.336 386.048 270.336 519.68 378.368 761.344 512 761.344s241.664-108.544 241.664-241.664z"  horiz-adv-x="1024" />

    
    <glyph glyph-name="vip" unicode="&#58926;" d="M77.824 449.024L317.44 734.72h387.584l239.616-285.696-433.152-478.72-433.664 478.72zM699.904 724.48l230.4-274.944-419.328-463.872-419.328 463.36 230.4 274.944h377.856m9.728 31.744H312.32l-258.56-307.2 457.216-504.32 457.216 504.32-258.56 307.2zM758.784 384.512h-8.704c-12.8 0-11.776-2.56-17.92-9.728-44.544-58.88-221.184-291.328-221.184-291.328 0 0.512 0 0.512-0.512 1.024v-1.024s-177.152 232.448-221.184 291.328c-6.144 7.168-5.12 9.728-17.92 9.728h-8.704c-5.12 0-8.704 4.096-8.704 9.728v48.128c0 5.12 4.096 9.728 8.704 9.728h88.576c5.12 0 11.776-0.512 17.92-9.728l141.824-195.072v-0.512s0 0.512 0.512 0.512l141.312 195.072c5.632 8.704 12.8 9.728 17.92 9.728h88.576c4.608 0 8.704-4.096 8.704-9.728V394.24c-0.512-5.632-4.096-9.728-9.216-9.728z"  horiz-adv-x="1024" />

    
    <glyph glyph-name="VIP" unicode="&#58898;" d="M913 491.6v178.2c0 39.4-31.8 71.2-71.2 71.2H183.2c-39.4 0-71.2-32-71.2-71.2v-178.2c49.2 0 89-43.8 89-98s-39.8-98-89-98v-178.2C112 78 143.8 46 183.2 46h658.6c39.4 0 71.2 32 71.2 71.2v178.2c-49.2 0-89 43.8-89 98s39.8 98.2 89 98.2zM372 253.2h-62.6l-80.4 263.8H284l34.8-128.4c8.2-29.2 13.6-55.6 22-85.2h1.8c8.2 29.6 14.2 56 22.4 85.2l34.2 128.4h53.4L372 253.2z m163.8 0h-52.6V517h52.6v-263.8z m152.6 93.8h-35.2v-93.8h-52.6V517h86.6c58.4 0 103.2-20.4 103.2-82.8-0.2-60.2-45.4-87.2-102-87.2z m-5.4 128.4h-30v-86.6h31.6c36.4 0 53.8 15.4 53.8 45.6 0.2 30.6-19 41-55.4 41z"  horiz-adv-x="1024" />

    
    <glyph glyph-name="qipai" unicode="&#58894;" d="M655.552 88.128c-70.336 0-131.072 23.424-185.6 71.68a707.84 707.84 0 0 0-17.984 16.576 479.168 479.168 0 0 0-18.048-16.576c-54.72-48.256-115.392-71.68-185.6-71.68a337.28 337.28 0 0 0-13.824 0.32 239.744 239.744 0 0 0-161.984 70.464C25.088 205.376 0 262.272 0 323.392c0 79.104 33.856 158.592 103.488 243.072C171.456 648.64 271.232 737.856 386.688 841.152L448.896 896l2.304-1.728 2.112 1.664 63.936-54.912c115.2-103.04 214.784-192.064 283.008-274.56 69.696-84.416 103.68-163.968 103.68-243.072 0-61.056-25.088-117.952-72.512-164.48a240.192 240.192 0 0 0-162.048-70.464 337.28 337.28 0 0 0-13.824-0.32zM451.84 336.576l40.96-49.216c0.128-0.192 19.072-22.784 47.488-47.808 25.088-22.08 62.464-47.232 124.544-44.864a133.248 133.248 0 0 1 92.096 40.128c26.944 26.432 40.576 56.256 40.576 88.576 0 53.376-25.856 110.72-79.232 175.296-62.016 75.008-156.608 159.936-266.368 258.048-109.888-98.304-204.608-183.424-266.368-258.048-53.248-64.576-79.104-121.92-79.104-175.296 0-32.32 13.632-62.144 40.576-88.512 26.304-25.856 55.616-38.592 92.032-40.192 63.104-2.432 99.456 22.784 124.544 44.864 28.288 24.96 47.104 47.552 47.296 47.744l40.96 49.28zM288.576-127.872l163.328 390.4 163.456-390.4z"  horiz-adv-x="1024" />

    
    <glyph glyph-name="hanguotubiao" unicode="&#58896;" d="M868.1 535.8c-19.4 45.8-47.1 87-82.5 122.3-35.3 35.3-76.5 63.1-122.3 82.5-47.5 20.1-97.9 30.3-149.8 30.3-43.8 0-86.8-7.3-127.8-21.7-39.6-13.9-76.5-34.2-109.6-60.2-32.8-25.8-61.1-56.4-84.1-91.2-23.3-35.4-40.6-74.1-51.1-115-0.5-1.9-0.9-3.7-1.4-5.6-7.2-29.7-10.9-60.4-10.9-91.2 0-51.9 10.2-102.3 30.3-149.8 19.4-45.8 47.1-87 82.5-122.3 35.3-35.3 76.5-63.1 122.3-82.5 47.5-20.1 97.9-30.3 149.8-30.3 51.9 0 102.3 10.2 149.8 30.3 45.8 19.4 87 47.1 122.3 82.5 35.3 35.3 63.1 76.5 82.5 122.3 20.1 47.5 30.3 97.9 30.3 149.8s-10.2 102.3-30.3 149.8zM750.3 149.2C687 86 603 51.1 513.5 51.1c-89.4 0-173.5 34.8-236.8 98.1-63.2 63.2-98.1 147.3-98.1 236.8 0 12.2 0.7 24.3 2 36.3C215.8 369.1 275.5 304 357 304c0 0 73.9-0.6 143 79 72 83 129.9 96.6 135.3 97.7 0.2 0 0.4 0.1 0.6 0.2 5.8 2.1 91.4 31 170-68.8 0 0 19.7-22.8 40.8-59.3-7.4-76.9-41-148.2-96.4-203.6z"  horiz-adv-x="1024" />

    
    <glyph glyph-name="youxi2" unicode="&#58915;" d="M417.9 638h-94.8v-54.9h-54.8v-94.8H323v-54.9h94.8v54.9h55v94.8h-54.9zM857.3 477.7c-56.3 0-102.2-45.9-102.2-102.2S801 273.3 857.3 273.3c56.3 0 102.2 45.9 102.2 102.2s-45.9 102.2-102.2 102.2zM838.2 138.1L610.5 371.3 850 625.7c12.3 12.7 16.7 30.2 12.4 49.4-0.1 0.5-1.4 6.4-4.3 13.2l2.5 2.5-12.1 14.1c-35.3 40.7-86.9 78.4-145.4 106-64.3 30.4-131.9 46.5-195.5 46.5-62 0-122-12.1-178.6-35.9-54.7-23.1-103.7-56.1-145.9-98.3-42.2-42.2-75.3-91.2-98.4-145.9-24-56.5-36.1-116.7-36.1-178.6 0-62 12.2-122 36.1-178.6 23.2-54.7 56.2-103.7 98.4-145.9 42.2-42.1 91.2-75.2 145.9-98.3 56.6-24 116.7-36.1 178.6-36.1 117.4 0 229.2 44.6 314.8 125.6l0.6 0.6 0.6 0.6c0.7 0.8 1.5 1.7 2.5 2.7 5.2 5.7 12.5 13.5 17 23.9 6.4 14.8 5 29.8-3.9 43.5l-1 1.4zM507.6 34.2c-200.8 0-364.1 163.3-364.1 364.1s163.3 364.1 364.1 364.1c92.9 0 180.3-35 248.1-98.8L480 368.9l251-257.5c-63.9-49.9-142.4-77.2-223.4-77.2z"  horiz-adv-x="1024" />

    
    <glyph glyph-name="hongbao1" unicode="&#58899;" d="M819.2-128H204.765867a136.533333 136.533333 0 0 0-136.533334 136.533333V691.2l409.6-136.533333h68.266667L955.733333 691.2v-682.666667a136.533333 136.533333 0 0 0-136.533333-136.533333z m-271.394133 343.483733l99.089066 0.238934c24.814933-0.238933 33.655467 12.629333 34.0992 28.125866 0.375467 13.448533-12.322133 38.8096-34.7136 39.424h-99.054933v23.893334s75.195733 76.8 94.685867 94.481066c19.456 17.783467 24.3712 31.709867 12.356266 46.08-12.1856 14.677333-33.655467 13.755733-49.390933 0.750934-15.9744-13.243733-92.740267-84.548267-92.740267-84.548267s-65.911467 68.061867-80.1792 81.749333c-12.8 12.322133-40.004267 24.302933-54.647466 7.714134-15.2576-17.3056-3.413333-38.946133 6.178133-48.401067 9.5232-9.386667 92.023467-96.597333 92.023467-96.597333l-0.136534-26.248534h-103.355733c-15.2576 0-28.7744-27.170133-28.296533-41.642666 0.477867-14.370133 12.049067-25.634133 28.2624-25.634134 16.1792 0 103.048533 0.6144 103.048533 0.6144l-0.238933-73.181866h-107.076267c-15.291733 0-28.091733-15.394133-28.706133-29.832534-0.6144-14.4384 11.434667-34.030933 28.706133-34.030933h106.837333s-0.170667-25.053867 0.443734-35.464533c1.4336-23.278933 16.725333-32.836267 37.137066-33.211734 20.411733-0.375467 34.9184 16.6912 34.884267 31.982934-0.068267 12.629333-0.375467 36.693333-0.375467 36.693333s88.917333 0.170667 105.710934 0c16.7936-0.136533 29.354667 16.861867 28.672 34.030933-0.6144 17.237333-11.025067 30.446933-36.522667 30.446934h-97.245867l0.546134 72.567466zM546.133333 622.933333h-68.266666L68.266667 759.466667a136.533333 136.533333 0 0 0 136.533333 136.533333h614.4a136.533333 136.533333 0 0 0 136.533333-136.533333L546.133333 622.933333z"  horiz-adv-x="1024" />

    
    <glyph glyph-name="fanli" unicode="&#58902;" d="M513.862216 892.392185c-281.774013 0-510.196092-228.422079-510.196093-510.196093 0-281.766725 228.422079-510.188804 510.196093-510.188803s510.188804 228.422079 510.188804 510.188803c0 281.774013-228.414791 510.196092-510.188804 510.196093zM382.326375 256.644123c36.653945 43.045973 53.395665 104.393409 50.225161 184.144346V627.330738h217.627787c49.401559 0 90.880501 5.568426 124.363942 16.74172V598.628563c-31.909121-8.00279-71.748148-11.960454-119.575387-11.960454H492.339229v-76.529414h265.462316v-40.65534c-20.743115-73.351621-52.615794-129.96881-95.661768-169.793259 33.483441-25.524382 71.748148-47.047368 114.794121-64.56896v-40.65534c-70.173828 23.91362-120.398989 48.614399-150.668195 74.138781-33.483441-25.524382-84.524915-50.225161-153.058827-74.138781v38.264707c44.620293 20.699384 82.884999 43.045973 114.79412 66.966881-36.690388 39.824449-65.392562 87.651689-86.099234 143.489007h62.178326c14.351087-39.875469 35.05776-75.749543 62.178327-107.622221 28.702174 30.261917 52.615794 74.918652 71.748148 133.926474H492.339229v-21.522987c6.355586-113.219801-30.305648-192.139848-110.012854-236.752852v45.429318z m-52.615795 392.209601c22.310146-41.478942 37.448393-81.31068 45.436607-119.575387h-59.787694c-6.392028 35.050472-19.132353 74.918652-38.264707 119.575387h52.615794z m459.176484-521.347521H442.114068c-52.615794-1.567031-88.489868 13.563928-107.622221 45.436606-23.91362-28.702174-55.822741-47.834528-95.661768-57.39706v35.874074c39.839026 17.521592 58.97138 45.436606 57.397061 83.701313v203.2767h-57.397061v40.65534h117.184754v-227.19032c1.574319-54.219268 31.872679-82.141571 90.880501-83.701313h341.99173v-40.65534z"  horiz-adv-x="1027" />

    
    <glyph glyph-name="danlei" unicode="&#58994;" d="M353.1 732.2c148 12.9 285.6-179.4 301.4-362s-94.4-304.6-242.4-317.5c-148-12.9-277.6 88.3-293.5 270.9-15.8 182.6 86.6 395.7 234.5 408.6z m49.6-99.1l-0.1-1.1h-0.2c0.2 0 16.3-2.6 37.9-18.6 20.3-15 49.8-45.2 74.7-103.7 3.2-7.5 10.7-11.7 18.4-11.1 1.9 0.2 3.8 0.6 5.6 1.4 9.3 4 13.6 14.7 9.7 24-56.2 132.1-138 143.8-141.5 144.2l-0.1-0.7c-1.1 0.1-2.1 0.1-3.2 0-9.6-0.8-16.7-9.3-15.8-18.9 0.6-8 6.8-14.3 14.6-15.5z m302.2-268.8c-9.5 109.1-59.2 221.4-128.8 297.6 66.1 53.8 142.3 81.3 211.4 61 142.5-41.8 200.9-271 149.4-446.8S738.3 26.7 595.8 68.5c-3.7 1.1-7.3 2.2-11 3.5 82 57.6 131.6 160.3 120.1 292.3z m92.8 248.3l-0.5-1-0.2 0.1c0.1-0.1 14.2-8.4 28.6-31.1 13.5-21.4 30-60.2 31.9-123.8 0.2-8.1 5.7-14.8 13.1-17 1.8-0.5 3.7-0.8 5.7-0.7 10.1 0.3 18 8.7 17.7 18.8-4.4 143.5-76.4 184.1-79.4 185.8l-0.3-0.6c-0.9 0.5-1.9 0.9-3 1.2-9.2 2.7-18.9-2.6-21.6-11.8-2.3-7.8 1.2-16 8-19.9z"  horiz-adv-x="1024" />

    
    <glyph glyph-name="weixin" unicode="&#58900;" d="M503.040 487.68c17.92 0 30.72 12.8 30.72 30.72s-11.52 30.72-30.72 30.72c-17.92 0-37.12-11.52-37.12-30.72 0-17.92 17.92-30.72 37.12-30.72zM582.4 371.2c-11.52 0-24.32-12.8-24.32-24.32 0-12.8 12.8-24.32 24.32-24.32 19.2 0 30.72 11.52 30.72 24.32 0 11.52-12.8 24.32-30.72 24.32zM512 896c-282.88 0-512-229.12-512-512s229.12-512 512-512 512 229.12 512 512c0 282.88-229.12 512-512 512zM410.88 236.8c-30.72 0-55.040 6.4-85.76 12.8l-85.76-42.24 24.32 72.96c-61.44 42.24-97.28 98.56-97.28 165.12 0 115.2 110.080 207.36 244.48 207.36 120.32 0 225.28-72.96 247.040-171.52-7.68 1.28-15.36 1.28-23.040 1.28-116.48 0-207.36-87.040-207.36-193.28 0-17.92 2.56-34.56 7.68-51.2-8.96-1.28-16.64-1.28-24.32-1.28zM771.84 151.040l17.92-61.44-66.56 37.12c-24.32-6.4-48.64-12.8-72.96-12.8-116.48 0-208.64 79.36-208.64 177.92 0 97.28 92.16 177.92 208.64 177.92 110.080 0 207.36-79.36 207.36-177.92 0-55.040-37.12-103.68-85.76-140.8zM716.8 371.2c-11.52 0-24.32-12.8-24.32-24.32 0-12.8 12.8-24.32 24.32-24.32 17.92 0 30.72 11.52 30.72 24.32 0 11.52-12.8 24.32-30.72 24.32zM331.52 549.12c-17.92 0-37.12-11.52-37.12-30.72 0-17.92 17.92-30.72 37.12-30.72 17.92 0 30.72 12.8 30.72 30.72 0 17.92-12.8 30.72-30.72 30.72z"  horiz-adv-x="1024" />

    
    <glyph glyph-name="jingcaidating" unicode="&#58921;" d="M802.7 184.3c-27.6-27.8-55.3-55.6-83.1-83.1-5.6-5.5-12.7-4.6-18.4 1.4-5.6 5.9-5.7 12-0.5 18l2.1 2.1c10.6 10.7 10.6 10.7 0.2 21.1-20.5 20.5-41.1 40.8-61.3 61.5-4.3 4.4-6.5 3.9-10.3-0.2-8.9-9.5-18.2-18.5-27.4-27.6-14.2-14.1-26.6-14.2-40.6-0.2l-3.7 3.7c-11.5 11.6-11.6 25.4-0.1 36.9 30.3 30.4 60.7 60.7 91.1 91.1 11.8 11.8 23.6 23.7 35.5 35.5 11.6 11.5 25.2 11.4 36.9 0 11.3-11.1 13.8-15.3 13.8-23.7 0-7.1-2.6-13-7.7-18-10.5-10.4-20.7-20.9-31.3-31.2-3.1-3-3.7-4.6-0.2-8.1 23.3-22.9 46.4-46.1 69.4-69.3 3.1-3.1 4.9-3 7.6 0.2 2.7 3.2 5.8 6.1 9 9 5.6 5.1 12.4 4.8 18-0.6 5.9-6 6.7-12.7 1-18.5zM516 307.6c-15.5-14.1-31.4-27.8-46.8-42.1-4.4-4-6.6-3.5-10.5 0.5-18.9 19.3-38 38.3-57.2 57.2-3.2 3.1-3.5 4.8-0.3 8.3 13 14.2 25.5 28.8 38.6 42.8 4 4.3 3.2 6.1-0.8 9.6-54.5 48.4-108.9 97-163.4 145.4-8.3 7.4-13.1 16-14 27-2.5 29.3-5.2 58.7-8.1 88-0.6 5.7 1.3 7.3 5.2 5.8 31.4-2.8 61.5-5.3 91.5-8.1 9-0.9 16.5-5.1 22.6-11.9 47.3-53.1 94.8-106.2 141.9-159.5 4.5-5.1 6.4-5 10.9 0 46.8 52.9 94 105.6 140.9 158.4 6.4 7.2 14 12.1 23.7 13 30.3 2.8 60.7 5.3 91 8.2 5.3 0.5 6.2-1.1 5.7-5.9-2.9-29.8-5.7-59.6-8.3-89.5-0.9-10.3-5.6-18.3-13.2-25-54.5-48.5-108.8-97.1-163.4-145.4-4.6-4-5-6.2-0.7-10.8 12.8-13.7 25-27.9 37.6-41.7 3.1-3.4 3.6-5.3 0-8.9-19.6-19.2-39-38.7-58.3-58.3-3.3-3.4-5.1-3.1-8.3-0.1-15.9 14.5-32.1 28.5-47.9 43.1-3.4 3.2-5.2 2.9-8.4-0.1z m-35.2-126.8c-11.3-11.5-15.1-13.6-23.8-13.6-7.2-0.1-12.9 2.9-17.9 8-10.4 10.5-20.9 20.8-31.2 31.3-2.8 2.9-4.5 3.4-7.6 0.2-23.2-23.4-46.5-46.7-69.9-69.9-2.8-2.7-2.9-4.4 0-6.9 3.4-2.9 6.6-6.1 9.6-9.5 5.2-5.8 4.8-12.2-0.8-18-5.7-5.9-12.9-6.6-18.5-1.1-27.7 27.4-55.2 55-82.6 82.6-5.9 5.9-5.3 12.4 0.7 18.4 5.8 5.8 12.5 6.1 18.5 0.7 0.2-0.2 0.4-0.4 0.6-0.5 4.4-3.6 7.6-11.3 12.5-10.5 4.6 0.7 8.4 7.2 12.4 11.3 20 19.9 39.8 40 59.9 59.8 3.4 3.4 3.6 5.2 0 8.6-10.5 10-20.6 20.3-30.8 30.6-11.1 11.3-11.1 25 0.1 36.4 1.9 2 3.9 3.9 5.8 5.8 11.7 11.4 25.2 11.4 36.9-0.3 42-42 84.1-84 126-126.1 12-11.7 11.9-25.3 0.1-37.3zM512 896C229.2 896 0 666.8 0 384s229.2-512 512-512 512 229.2 512 512S794.8 896 512 896z"  horiz-adv-x="1024" />

    
    <glyph glyph-name="icon_shoppingmall" unicode="&#58903;" d="M885.333-32h-746.667c-23.564 0-42.667 19.103-42.667 42.667l64 746.667c0 23.564 19.103 42.667 42.667 42.667h618.667c23.564 0 42.667-19.103 42.667-42.667l64-746.667c0-23.564-19.103-42.667-42.667-42.667zM629.333 586.667c0-70.692-57.308-128-128-128-70.692 0-128 57.308-128 128h-64c0-106.039 85.961-192 192-192s192 85.961 192 192h-64z"  horiz-adv-x="1024" />

    
    <glyph glyph-name="yanzhengma" unicode="&#58927;" d="M155.56 90.28a52 52 0 0 0-52 52V625.13a52 52 0 0 0 52 52h540.36a40 40 0 0 1 0 80H155.56c-72.77 0-132-59.2-132-132v-482.87c0-72.77 59.2-132 132-132a40 40 0 1 1 0 80z m400.92 263.41a30 30 0 0 1 30 30v87.4a30 30 0 0 1-30 30H439.95a30 30 0 0 1 0-60h86.53v-27.4h-86.53a30 30 0 0 1-30-30v-87.4a30 30 0 0 1 30-30h116.53a30 30 0 0 1 0 60h-86.53v27.4z m157.81-27.4a30 30 0 0 1 0-60h116.53a30 30 0 0 1 30 30v174.8a30 30 0 0 1-30 30H714.28a30 30 0 0 1 0-60h86.53v-27.4h-86.53a30 30 0 0 1 0-60h86.53v-27.4z m154.09 430.82a40 40 0 0 1 0-80 52 52 0 0 0 52-52v-482.85a52 52 0 0 0-52-52H328a40 40 0 1 1 0-80h540.38c72.77 0 132 59.2 132 132V625.13c-0.03 72.77-59.23 131.98-132 131.98z m-597.16-261a30 30 0 0 1-28.22 2.63l-61.5-25.9a30 30 0 0 1 23.28-55.3l19.86 8.36v-129.61a30 30 0 0 1 60 0v174.8a30 30 0 0 1-13.42 25z"  horiz-adv-x="1024" />

    
    <glyph glyph-name="weixin1" unicode="&#58906;" d="M575.61088 384.771413c-11.086507 0-22.17984-10.298027-22.17984-22.97856 0-10.294613 11.086507-20.589227 22.17984-20.589226 16.646827 0 28.52864 10.298027 28.52864 20.589226 0 12.67712-11.881813 22.97856-28.52864 22.97856m-72.884907 106.963627c17.431893 0 28.521813 11.086507 28.521814 27.72992 0 17.425067-11.08992 27.72992-28.521814 27.72992-16.64 0-32.488107-10.304853-32.488106-27.72992 0-16.646827 15.848107-27.72992 32.488106-27.72992m8.71424 378.934613C242.868907 870.669653 25.1392 652.950187 25.1392 384.37888c0-268.581547 217.729707-486.301013 486.301013-486.301013s486.290773 217.719467 486.290774 486.301013c0.003413 268.571307-217.71264 486.290773-486.290774 486.290773m-91.910826-609.501866c-29.313707 0-50.70848 4.754773-78.445227 12.68736L261.061973 233.437867l22.985387 68.140373c-56.25856 39.60832-89.535147 89.52832-89.535147 150.541653 0 107.752107 101.41696 190.149973 225.017174 190.149974 109.335893 0 206.803627-64.965973 225.81248-156.88704-7.922347 1.59744-15.056213 2.38592-21.39136 2.38592-107.758933 0-190.948693-80.817493-190.948694-178.26816 0-16.643413 2.37568-31.6928 6.335147-47.547734-6.331733-0.785067-13.4656-0.785067-19.807573-0.785066m330.400426-77.643094l15.844694-57.050453-60.22144 34.065067c-22.971733-4.747947-45.1584-11.8784-68.133547-11.8784-106.171733 0-190.153387 72.88832-190.153387 163.211946s83.981653 163.21536 190.153387 163.21536c100.625067 0 190.941867-72.891733 190.941867-163.21536 0.003413-50.705067-34.06848-95.863467-78.431574-128.34816M345.84576 547.198293c-16.64 0-34.065067-10.304853-34.065067-27.72992 0-16.643413 17.425067-27.74016 34.065067-27.74016 15.848107 0 28.521813 11.096747 28.521813 27.74016 0 17.425067-12.673707 27.72992-28.521813 27.72992m354.16064-162.42688c-11.881813 0-22.183253-10.298027-22.183253-22.97856 0-10.294613 10.30144-20.589227 22.183253-20.589226 15.848107 0 27.72992 10.298027 27.72992 20.589226 0 12.67712-11.881813 22.97856-27.72992 22.97856m0 0z"  horiz-adv-x="1024" />

    
    <glyph glyph-name="xinren" unicode="&#58909;" d="M670.347947 165.7344c120.767147 61.866667 203.782827 187.306667 203.782826 332.01152 0 205.748907-167.447893 373.118293-373.292373 373.118293-205.847893 0-373.295787-167.36256-373.295787-373.118293 0-146.725547 85.415253-273.588907 208.954027-334.49984-73.23648-57.514667-118.074027-149.828267-118.237867-248.313173a16.933547 16.933547 0 0 1 4.922027-11.96032 16.889173 16.889173 0 0 1 11.956907-4.94592h539.856213a16.930133 16.930133 0 0 1 11.95008 4.94592 16.930133 16.930133 0 0 1 4.922027 11.96032c-0.167253 100.235947-46.26432 193.491627-121.51808 250.801493z m-65.809067 498.664107l5.280427-122.364587 54.152533 122.364587h42.769067l9.28768-124.439894 49.291946 124.439894h36.201814l-74.676907-178.15552h-38.157653l-12.00128 133.184853-58.84928-133.184853H578.833067l-11.103574 178.15552h36.809387z m-185.552213 0h132.078933l-5.300907-30.13632h-96.119466l-6.9632-39.482027h89.43616l-5.307734-30.030507h-89.439573l-8.543573-48.47616h99.529386l-5.300906-30.030506h-135.478614l31.409494 178.15552zM262.130347 602.4192l-20.50048-116.176213h-33.41312l31.42656 178.15552h34.986666l51.920214-118.981974 20.992 118.981974h33.399466l-31.40608-178.15552h-36.078933L262.130347 602.4192z m239.100586-306.558293c-64.139947 0-124.023467 28.61056-164.36224 78.506666-5.853867 7.222613-11.748693 20.097707 0.095574 31.952214 11.134293 13.899093 27.900587 9.87136 33.774933 2.63168 33.870507-41.939627 76.608853-62.65856 130.491733-62.65856 54.193493 0 93.58336 18.74944 127.505067 61.11232 7.55712 10.724693 17.98144 13.523627 34.245973 1.60768 15.066453-11.728213 12.980907-22.872747 3.26656-33.826134-40.372907-50.404693-100.502187-79.325867-165.0176-79.325866z"  horiz-adv-x="1024" />

    
    <glyph glyph-name="weibo1" unicode="&#58942;" d="M512 384m-460.8 0a460.8 460.8 0 1 1 921.6 0 460.8 460.8 0 1 1-921.6 0ZM636.99968 397.50656c-20.48 4.096-10.24 14.848-10.24 14.848s19.968 32.768-4.096 56.832c-29.696 29.696-101.376-3.584-101.376-3.584-27.136-8.704-19.968 4.096-16.384 25.088 0 25.088-8.704 67.072-81.92 42.496-73.216-25.088-135.68-112.64-135.68-112.64-44.032-58.88-37.888-103.936-37.888-103.936 10.752-99.328 116.224-126.976 198.656-133.12 86.528-6.656 202.752 29.696 238.08 104.96 35.84 75.264-28.672 104.96-49.152 109.056z m-182.784-186.368c-85.504-4.096-155.136 38.912-155.136 96.256s69.632 103.424 155.136 107.52c85.504 4.096 155.136-31.232 155.136-88.576s-69.12-111.104-155.136-115.2zM437.31968 377.02656c-86.528-10.24-76.288-91.136-76.288-91.136s-1.024-25.6 23.04-38.4c50.176-27.136 102.4-10.752 128.512 23.04 26.624 34.304 11.264 116.736-75.264 106.496z m-21.504-113.664c-15.872-2.048-29.184 7.68-29.184 20.992s11.264 27.648 27.648 29.184c18.432 1.536 30.72-8.704 30.72-22.528-0.512-13.312-13.312-25.6-29.184-27.648z m50.688 43.52c-5.632-4.096-12.288-3.584-14.848 1.536-3.072 5.12-2.048 12.288 3.584 16.384 6.144 5.12 12.8 3.584 15.872-1.536 3.072-4.608 0.512-12.288-4.608-16.384zM678.98368 432.32256c6.656 0 12.8 5.12 13.824 11.776 0 0.512 0.512 1.024 0.512 1.536 10.752 94.72-77.824 78.336-77.824 78.336-7.68 0-14.336-6.144-14.336-14.336 0-7.68 6.144-14.336 14.336-14.336 63.488 14.336 49.152-49.664 49.152-49.664 0-6.656 6.656-13.312 14.336-13.312zM668.74368 598.21056c-30.72 7.168-61.952 1.024-70.656-0.512-0.512 0-1.536-0.512-2.048-1.024-0.512 0-0.512-0.512-0.512-0.512-8.704-2.56-14.848-10.24-14.848-19.968 0-11.264 9.216-20.48 20.48-20.48 0 0 10.752 1.536 18.944 4.096 7.68 3.072 70.656 2.048 101.888-50.688 16.896-38.4 7.68-64 6.144-68.608 0 0-4.096-10.24-4.096-19.968 0-11.264 9.216-18.432 20.48-18.432 9.728 0 17.408 1.024 19.968 17.408 33.792 113.152-41.472 165.888-95.744 178.688z"  horiz-adv-x="1024" />

    
    <glyph glyph-name="hanguo" unicode="&#58910;" d="M67.8 640.7h890v-595h-890zM658.6 356.6c7.3-80.7-52-152.1-132.5-159.5-80.5-7.3-151.7 52.1-159 132.8-7.3 80.7 52 152.2 132.5 159.5 80.4 7.3 151.6-52.1 159-132.8zM387.6 419.1c-20.9-34.7-10-79.7 24.6-100.7s79.5-9.9 100.4 24.7c20.9 34.6 65.8 45.6 100.4 24.7 34.5-21 45.5-66 24.6-100.6-41.8-69.3-131.7-91.3-200.8-49.4-69 41.9-91 132-49.2 201.3M201.7 461.4l19-12.8 82.1 122.1-18.9 12.8z m29.3-19.8l19-12.8 82.1 122.1-19 12.8z m29.3-19.8l19-12.8 82.1 122.1-19 12.8z m448-200.9l19-12.8 38.1 56.5-19 12.9z m-44-65.5l19-12.9 38 56.6-19 12.9z m73.3 45.7l19-12.9 38 56.6-18.9 12.9z m-44.1-65.5l19-12.9 38.1 56.6-19 12.8z m73.4 45.7l18.9-12.8 38.1 56.5-19 12.9z m-44.1-65.5l19-12.8 38 56.5-19 12.9z m52.9 313l18.9 12.8-82 122.1-19.1-12.8z m-14.8 85.3l18.9 12.9-38 56.5-19-12.8z m44-65.5l19 12.8-38 56.6-19-12.9z m-102.6 26l19 12.8-38 56.6-19-12.9z m44.1-65.6l19 12.8-38.1 56.6-18.9-12.8z m-404-266.5l19 12.9-82.1 122.1-19-12.9zM283.9 103l18.9 12.8-82.1 122.1-18.9-12.9z m-14.8 85.2l19 12.9-38.1 56.6-19-12.8z m44-65.4l19 12.8-38 56.5-19-12.8z"  horiz-adv-x="1024" />

    
    <glyph glyph-name="jinbi1" unicode="&#58992;" d="M512 896C229.76 896 0 666.304 0 384c0-282.368 229.76-512 512-512s512 229.696 512 512-229.76 512-512 512z m141.824-569.088v-0.128a43.072 43.072 0 0 0 43.264-42.624 43.136 43.136 0 0 0-43.264-42.688H565.76v-43.008h-0.576c0.64-3.264 1.152-6.848 1.152-10.368 0-29.504-24.32-53.376-54.4-53.376a53.888 53.888 0 0 0-54.528 53.376c0 3.52 0.448 7.04 1.152 10.368h-0.896v43.008H370.432a43.136 43.136 0 0 0-43.52 42.688c0 23.552 19.52 42.624 43.52 42.624h0.192v0.128h87.04v42.56h-87.04v0.128h-0.192a43.136 43.136 0 0 0-43.52 42.624c0 23.552 19.52 42.688 43.52 42.688h0.192V455.04h79.488a20.48 20.48 0 0 0 3.712 7.488L356.096 558.336c-12.096 11.84-8.128 34.944 8.768 51.52s40.448 20.48 52.544 8.64l95.616-93.76L601.6 617.28c13.76 14.72 41.664 11.136 58.688-5.76 16.96-16.768 25.536-32 8.704-50.56L566.016 457.728c-0.064-1.024 0.256-1.792 0-2.752h87.744v-0.128a43.072 43.072 0 0 0 43.328-42.688 43.2 43.2 0 0 0-43.328-42.752H565.824v-42.56h88z"  horiz-adv-x="1024" />

    
    <glyph glyph-name="vip3" unicode="&#59081;" d="M997.542 613.349L775.608 810.624a62.724 62.724 0 0 1-41.674 15.844H290.066a62.73 62.73 0 0 1-41.674-15.844L26.458 613.349a62.728 62.728 0 0 1-21.054-46.884V448.1a62.727 62.727 0 0 1 18.374-44.357l443.867-443.841c12.248-12.247 28.301-18.371 44.354-18.371s32.106 6.124 44.354 18.371l443.867 443.841a62.732 62.732 0 0 1 18.374 44.357V566.466a62.72 62.72 0 0 1-21.052 46.883zM715.647 423.883l-181.02-181.019c-12.497-12.497-32.758-12.497-45.255 0L308.353 423.883c-12.497 12.497-12.497 32.758 0 45.255s32.758 12.497 45.255 0L512 310.746l158.392 158.392c12.497 12.497 32.758 12.497 45.255 0s12.497-32.758 0-45.255z"  horiz-adv-x="1024" />

    
    <glyph glyph-name="weixin2" unicode="&#59124;" d="M512 384m-512 0a512 512 0 1 1 1024 0 512 512 0 1 1-1024 0ZM609.431 550.551c-27.586 38.061-68.18 61.05-118 77-10.016 3.207-19.03 2.447-30 5-18.479 4.302-56.017 5.611-76 1-18.545-4.279-37.414-7.244-54-14-54.392-22.155-96.792-58.626-119-113-9.903-24.248-12.938-67.915-4-96 13.842-43.496 45.058-86.052 83-105-1.988-13.202-8.143-25.358-12-37-3.104-9.368-3.588-20.732-9-28v-2c19.057 9.157 38.029 18.125 57 28 6.477 3.371 13.957 9.952 21 12 5.427 1.578 21.005-4.767 26-6 19.22-4.745 40.997-3.837 64-4-0.646 7.464-3.361 14.129-5 21-3.901 16.372-1.905 42.906 2 57 18.009 64.969 64.089 99.519 125 122 21.008 7.754 53.081 14.571 81 11-0.746 29.378-18.857 52.866-32 71z m-253-64c-22.043-7.373-47.271 15.271-39 38 4.205 11.557 13.025 13.28 22 20 18.713 0.537 29.959-4.292 36-16 10.063-19.506-6.266-37.74-19-42z m154 0c-22.887-8.228-46.146 15.34-40 37 3.562 12.548 13.286 14.48 23 21 43.812 1.251 50.007-46.134 17-58zM799.431 382.551c-34.936 56.305-92.884 85.368-186 84-4.022-2.521-10.684-0.704-16-2-8.213-2.002-17.417-3.222-26-6-26.944-8.723-49.65-21.726-70-37-39.836-29.9-70.409-99.453-43-163 14.697-34.072 42.586-58.471 73-77 17.98-10.954 41.312-16.267 64-22l14-1c9.403-2.108 27.1-4.561 39-2 11.406 2.454 23.843 1.939 35 5 3.298 0.904 9.954 4.934 14 4 6.156-1.418 13.38-8.079 19-11 12.512-6.502 36.605-14.354 46-23h1c-1.318 8.81-5.487 16.411-8 24-3.188 9.638-3.655 21.168-9 29 1.02 5.896 24.525 21.778 30 26 14.752 11.376 32.415 42.923 39 63 13.242 40.375 0.162 82.954-16 109z m-205-26c-5.059-5.494-7.483-11.865-15-15-15.444-6.44-31.349 4.507-34 15-8.35 11.328 4.529 27.145 11 31l11 3c20.689-0.99 28.929-13.015 27-34z m89-12c-10.053 6.71-13.498 25.698-5 37 4.17 5.546 11.877 5.207 18 9 19.04-0.617 19.072-8.306 28-18 0.79-24.639-19.026-42.668-41-28z"  horiz-adv-x="1024" />

    
    <glyph glyph-name="jinbi2" unicode="&#59079;" d="M911.86816 384.0064c0 220.8448-179.01056 399.86688-399.85664 399.86688-220.84736 0-399.88096-179.02208-399.88096-399.86688 0-220.84736 179.0336-399.85792 399.88096-399.85792 220.84608 0 399.85664 179.01056 399.85664 399.85792zM512.0128-64.00512C264.98944-64.00512 64 136.98432 64 384.0064 64 631.04 264.98944 832.00512 512.0128 832.00512S960 631.04 960 384.0064c0-247.02208-200.96512-448.01152-447.9872-448.01152z m0 799.74784c-193.94432 0-351.74784-157.79456-351.74784-351.73632 0-193.9648 157.80352-351.74784 351.74784-351.74784 193.94176 0 351.7248 157.78304 351.7248 351.74784 0 193.94176-157.78304 351.73632-351.7248 351.73632zM614.50496 480.33792c-20.80768-6.97984-43.40352 4.26112-50.38464 25.13664-5.12512 15.28576-24.38784 33.15584-61.80736 33.15584-29.06752 0-46.23104-18.86464-48.1536-37.4848-2.4064-23.1936 18.66624-41.77152 56.32896-49.63584 90.10176-18.86208 124.80128-81.81632 119.21408-135.80416-5.08032-49.0368-40.35712-88.44288-87.56096-102.89024v-24.29696c0-21.97888-17.82656-39.80544-39.80544-39.80544-21.99936 0-39.82592 17.82656-39.82592 39.80544v23.10528c-54.64832 12.61312-86.48064 49.69856-97.50272 82.68032-6.97984 20.84992 4.26368 43.4496 25.1392 50.38464 20.84992 6.97984 43.42656-4.26368 50.38464-25.11616 5.52192-16.52096 26.77248-33.15584 61.8048-33.15584 29.04704 0 46.21056 18.8416 48.13184 37.46432 2.40896 23.1936-18.6432 41.77152-56.3264 49.63328-90.12352 18.88768-124.80384 81.81888-119.21408 135.82592 5.08032 49.03808 40.38016 88.44288 87.56224 102.87872v24.30848c0 21.97888 17.84832 39.82848 39.82592 39.82848 21.97888 0 39.82848-17.84832 39.82848-39.82848v-23.09376c54.60224-12.62336 86.43456-49.69856 97.47968-82.66624 6.976-20.87552-4.26624-43.42912-25.11872-50.42944z"  horiz-adv-x="1024" />

    
    <glyph glyph-name="paihangbang" unicode="&#58911;" d="M909.8 360.9H689.6v-318.2h221.2c26.7 0 48.5 21.9 48.5 48.9V311.2c0 27.4-22.2 49.7-49.5 49.7zM689.6 676.2c0 27.1-21.8 49.1-48.5 49.1H403.3c-26.7 0-48.5-22-48.5-49.1v-633.5h334.8V676.2zM64.7 436.2v-344.6c0-27 21.8-48.9 48.5-48.9h241.7V485.6H114.2c-27.3 0-49.5-22.2-49.5-49.4zM576.6 324.9c-2.8-2.6-4-6.4-3.4-10.2l6.5-40.5c1.5-9.5-8.5-16.6-16.9-12l-35.9 19.5c-3.3 1.8-7.4 1.9-10.8 0.1l-36.6-18.7c-8.5-4.4-18.3 2.9-16.6 12.4l7.4 40.2c0.7 3.8-0.5 7.6-3.2 10.3l-29.3 29c-6.8 6.7-2.9 18.3 6.5 19.6l41.1 5.7c3.8 0.5 7 2.9 8.7 6.2l18.4 36.5c4.3 8.6 16.6 8.4 20.7-0.2l17.9-37.2c1.7-3.4 4.9-5.8 8.7-6.4l40.5-6.2c9.5-1.5 13.2-13.2 6.2-19.8l-29.9-28.3z"  horiz-adv-x="1024" />

    
    <glyph glyph-name="jinbi3" unicode="&#58918;" d="M614.9 683.5c116.9-64.8 196-188.9 196-331.7 0-142.7-79.2-266.9-196-331.6C789.6 30.8 928 175 928 351.8S789.5 672.7 614.9 683.5zM764 351.8c0 183.7-149.5 332.7-333.9 332.7-184.4 0-333.9-149-333.9-332.7s149.5-332.7 333.9-332.7c184.4 0 333.9 149 333.9 332.7z m-196.2-58.3c8.4-0.6 14.9-3.8 19.7-9.6 4.8-5.7 7.5-12.6 8.1-20.6-0.6-8.3-3.3-15.2-8.1-20.8-4.8-5.6-11.3-8.7-19.7-9.3l-92.1 0.5V183c-1.3-27.1-16.1-40.6-44.6-40.6-14.1 0-25 3.3-32.8 10-7.9 6.7-12.1 16.9-12.7 30.6v49.7H293c-8.6 0.6-15.3 4.2-19.9 10.8-4.6 6.5-7.4 13.8-8.4 21.7 1 8 3.8 14.5 8.4 19.6 4.6 5.1 11.3 8 19.9 8.6h92.6v30.1L293 324c-8.6 0.7-15.3 3.7-19.9 9.1-4.6 5.4-7.4 12.3-8.4 20.6 1 8 3.8 14.5 8.4 19.6 4.6 5.1 11.3 8 19.9 8.6h69l-64.3 112.8c-3.2 3.8-6.2 8.7-9.1 14.6-2.9 5.9-4.2 12.3-3.8 19.4 1.6 8.9 4.8 16.2 9.6 21.8 4.8 5.6 13.8 9.2 26.9 10.8 7.7-0.6 14.6-3.3 20.6-7.9 6.1-4.6 11-9.6 14.9-15l72.9-132.9 80.1 133.8c3.8 5.4 8.8 10.2 14.9 14.3 6.1 4.2 13 6.7 20.6 7.7 4.8-0.3 9.2-1 13.2-1.9 4-1 7.5-2.6 10.6-4.8 3-2.2 5.6-5.4 7.7-9.6 2.1-4.1 3.6-9.5 4.5-16.3 0-9.2-3.2-18-9.6-26.3L497.4 382h70.5c8.3-0.6 14.9-3.5 19.7-8.6 4.8-5.1 7.5-11.6 8.2-19.6-0.6-8.3-3.4-15.3-8.4-21-5-5.7-11.6-8.9-19.9-9.6l-91.6-0.5v-29.2h91.9zM614.9 683.5c116.9-64.8 196-188.9 196-331.7 0-142.7-79.2-266.9-196-331.6C789.6 30.8 928 175 928 351.8S789.5 672.7 614.9 683.5zM764 351.8c0 183.7-149.5 332.7-333.9 332.7-184.4 0-333.9-149-333.9-332.7s149.5-332.7 333.9-332.7c184.4 0 333.9 149 333.9 332.7z m-196.2-58.3c8.4-0.6 14.9-3.8 19.7-9.6 4.8-5.7 7.5-12.6 8.1-20.6-0.6-8.3-3.3-15.2-8.1-20.8-4.8-5.6-11.3-8.7-19.7-9.3l-92.1 0.5V183c-1.3-27.1-16.1-40.6-44.6-40.6-14.1 0-25 3.3-32.8 10-7.9 6.7-12.1 16.9-12.7 30.6v49.7H293c-8.6 0.6-15.3 4.2-19.9 10.8-4.6 6.5-7.4 13.8-8.4 21.7 1 8 3.8 14.5 8.4 19.6 4.6 5.1 11.3 8 19.9 8.6h92.6v30.1L293 324c-8.6 0.7-15.3 3.7-19.9 9.1-4.6 5.4-7.4 12.3-8.4 20.6 1 8 3.8 14.5 8.4 19.6 4.6 5.1 11.3 8 19.9 8.6h69l-64.3 112.8c-3.2 3.8-6.2 8.7-9.1 14.6-2.9 5.9-4.2 12.3-3.8 19.4 1.6 8.9 4.8 16.2 9.6 21.8 4.8 5.6 13.8 9.2 26.9 10.8 7.7-0.6 14.6-3.3 20.6-7.9 6.1-4.6 11-9.6 14.9-15l72.9-132.9 80.1 133.8c3.8 5.4 8.8 10.2 14.9 14.3 6.1 4.2 13 6.7 20.6 7.7 4.8-0.3 9.2-1 13.2-1.9 4-1 7.5-2.6 10.6-4.8 3-2.2 5.6-5.4 7.7-9.6 2.1-4.1 3.6-9.5 4.5-16.3 0-9.2-3.2-18-9.6-26.3L497.4 382h70.5c8.3-0.6 14.9-3.5 19.7-8.6 4.8-5.1 7.5-11.6 8.2-19.6-0.6-8.3-3.4-15.3-8.4-21-5-5.7-11.6-8.9-19.9-9.6l-91.6-0.5v-29.2h91.9z"  horiz-adv-x="1024" />

    
    <glyph glyph-name="jinbi4" unicode="&#58972;" d="M622.592 740.864c125.44-69.632 210.944-203.264 210.944-356.864s-84.992-286.72-210.944-356.864c187.904 11.264 336.896 166.4 336.896 356.864-0.512 189.952-148.992 345.088-336.896 356.864zM423.936 741.888c-198.144 0-358.912-160.256-358.912-357.888 0-197.632 160.768-357.888 358.912-357.888 198.144 0 358.912 160.256 358.912 357.888 0 197.632-160.768 357.888-358.912 357.888z m147.968-420.352c9.216-0.512 15.872-4.096 20.992-10.24 5.12-6.144 8.192-13.312 8.704-22.016-0.512-8.704-3.584-16.384-8.704-22.528-5.12-6.144-12.288-9.216-20.992-10.24l-98.816 0.512v-54.272c-1.536-29.184-17.408-43.52-48.128-43.52-15.36 0-27.136 3.584-35.328 10.752-8.704 7.168-12.8 17.92-13.824 32.768V256H276.48c-9.216 0.512-16.384 4.608-21.504 11.776s-8.192 14.848-9.216 23.552c1.024 8.704 4.096 15.36 9.216 20.992 5.12 5.632 12.288 8.704 21.504 9.216h99.328v32.256l-99.328 0.512c-9.216 0.512-16.384 4.096-21.504 9.728-5.12 5.632-8.192 13.312-9.216 22.016 1.024 8.704 4.096 15.36 9.216 20.992 5.12 5.632 12.288 8.704 21.504 9.216h74.24L281.6 537.6c-3.584 4.096-6.656 9.216-9.728 15.872-3.072 6.144-4.608 13.312-4.096 20.992 1.536 9.728 5.12 17.408 10.24 23.552 5.12 6.144 14.848 9.728 28.672 11.776 8.192-0.512 15.872-3.584 22.016-8.704 6.656-5.12 11.776-10.24 15.872-16.384l78.336-142.848 86.016 143.872c4.096 5.632 9.216 10.752 15.872 15.36 6.656 4.608 13.824 7.168 22.016 8.192 5.12-0.512 9.728-1.024 14.336-2.048 4.096-1.024 8.192-2.56 11.264-5.12 3.072-2.56 6.144-5.632 8.192-10.24 2.048-4.608 4.096-10.24 5.12-17.408 0-9.728-3.584-19.456-10.24-28.16L496.128 416.256h75.776c8.704-0.512 15.872-3.584 20.992-9.216 5.12-5.632 8.192-12.288 8.704-20.992-0.512-8.704-3.584-16.384-9.216-22.528-5.12-6.144-12.288-9.728-21.504-10.24l-98.304-0.512v-31.232h99.328z"  horiz-adv-x="1024" />

    
    <glyph glyph-name="biaoqing" unicode="&#59174;" d="M512.054187 896C229.224508 896 0 666.753817 0 384c0-282.808004 229.275083-512 512.054187-512 282.72853 0 511.949426 229.191996 511.949425 512C1024 666.753817 794.779104 896 512.054187 896z m184.679366-230.066209c50.79107 0 92.056106-41.268648 92.056106-92.117518s-41.268648-91.965795-92.056106-91.965795c-50.841645 0-92.056106 41.116925-92.056105 91.965795-0.003612 50.84887 41.210849 92.117518 92.056105 92.117518z m-369.41292 0c50.79107 0 92.005532-41.268648 92.005532-92.117518s-41.214461-91.965795-92.005532-91.965795c-50.841645 0-92.056106 41.116925-92.056106 91.965795 0 50.84887 41.218074 92.117518 92.056106 92.117518z m184.733554-636.376711c-184.885276 0-336.485423 141.579206-352.871504 322.234301H864.82093c-16.331894-180.655096-167.932041-322.234301-352.817318-322.234301h0.050575z"  horiz-adv-x="1024" />

    


  </font>
</defs>
</svg>
